<svg width="2072" height="256" version="1.1" viewBox="0 0 548.2 67.733" xmlns="http://www.w3.org/2000/svg">
 <g transform="translate(-2.3821 -175.77)">
  <path d="m94.593 196.25v5.1996h-5.3066v25.252h5.3066v5.334h25.147v-5.334h5.332v-3.947h-9.2795v5.3066h-17.224v-27.969h17.224v5.332h9.2795v-3.9744h-5.332v-5.1996h-21.172zm42.449 0v35.785h9.281v-15.973h17.225v15.973h9.2795v-14.613h-5.3325v-6.6662h5.3325v-9.3064h-5.3325v-5.1996h-26.504zm47.758 0v14.506h5.3046v5.3066h5.334v15.973h9.1741v-15.973h5.3319v-5.3066h5.3066v-14.506h-9.279v15.866h-11.893v-15.866h-5.332zm42.449 0v35.785h9.281v-10.641h21.172v-5.332h5.3319v-14.613h-5.3319v-5.1996h-26.506zm47.756 0v3.8421h10.639v31.943h9.1756v-31.943h10.639v-3.8421h-26.506zm47.756 0v5.1996h-5.3046v9.3064h5.3046v5.3066h21.199v11.998h-17.224v-5.3066h-9.2795v3.947h5.3046v5.334h25.147v-5.334h5.334v-9.279h-5.334v-5.3066h-21.172v-12.023h17.224v5.332h9.2816v-3.9744h-5.334v-5.1996h-21.172zm42.451 0v3.8421h10.639v31.943h9.1736v-31.943h10.639v-3.8421h-26.504zm42.449 0v35.785h35.785v-3.9744h-26.504v-11.998h21.172v-3.947h-21.172v-12.023h26.504v-3.8421h-31.838zm47.756 0v35.785h9.281v-15.973h17.225v15.973h9.2795v-14.613h-5.3319v-6.6662h5.3319v-9.3064h-5.3319v-5.1996h-26.504zm53.063 0v5.1996h-5.3051v9.3064h5.3051v5.3066h21.199v11.998h-17.225v-5.3066h-9.2795v3.947h5.3051v5.334h25.146v-5.334h5.334v-9.279h-5.334v-5.3066h-21.172v-12.023h17.225v5.332h9.281v-3.9744h-5.334v-5.1996h-21.172zm-362.16 3.8421h17.225v12.023h-17.225v-6.6915zm90.207 0h17.223v17.33h-17.223v-11.998zm228.17 0h17.225v12.023h-17.225v-6.6915z" fill="#fff" stroke="#fff" stroke-linejoin="round" stroke-width=".22111"/>
  <path d="m17.354 175.43-3.3869 2e-3v1.6929h-1.6934v1.6934h5.0798v1.6934h1.6939v1.6929h1.6934v1.6934h1.6929v1.694h-6.7732v1.6924h3.3869v3.3874h-1.6939v3.3863h-1.6929v1.6934h-1.6934v6.7732h-1.6934v8.4671h-1.6929v5.0798h-5.0798v1.6929h-3.3874v25.4h81.28v-9.7735h4.5351v5.2012h5.3051v5.2518h38.504v-5.2518h3.947v5.2518h22.529v-5.2518h3.9744v5.2518h22.531v-21.092h4.0276v15.84h5.332v5.2518h22.531v-15.785h3.947v10.533h5.332v5.2518h22.531v-10.453h21.278v-5.332h5.2265v-21.279h4.0271v31.812h5.334v5.2518h22.529v-31.73h3.9491v21.277h5.3319v5.2012h5.3066v5.2518h38.502v-5.2518h5.2265v-31.812h4.0271v31.812h5.3319v5.2518h22.531v-31.73h3.9475v26.478h5.334v5.2518h70.285v-5.2518h3.975v5.2518h22.531v-5.2518h4.0271v5.2518h38.502v-5.2518h5.2265v-38.502h-5.2265v-5.2012h-5.3066v-5.332h-38.502v5.332h-9.2542v-5.332h-134.04v5.332h-3.9217v-5.332h-38.502v5.332h-3.947v-5.332h-43.836v5.332h-3.9202v-5.332h-86.285v5.332h-3.9222v-5.332h-43.836v5.332h-3.9196v-5.332h-38.502v5.332h-5.334v0.65577h-0.894v34.073h-3.3869v1.6934h-5.0798v-11.854h-1.6929v-5.0798h-1.6939v-3.3863h-1.6934v-3.3874h-1.6929v-1.6929h-1.6934v-3.3868h1.6934v-1.6929h3.3869v-1.6934h3.3863v-1.694h-8.4666v1.694h-1.6934v-6.7722h1.6939v-1.6929h-1.6939v1.6914h-1.6929v1.6934h-1.6934v5.0798h1.6934v1.6939h-1.6934v-1.6939h-1.6934v-1.6934h-1.6929v-1.6929h-3.3874v-1.6934h-6.7727v1.6934h5.0798v1.6929h1.6929v1.6934h1.6934v1.6939h1.6939v1.6929h-3.3874v1.6934h-1.6929v5.0798h1.6929v-1.6934h1.6934v-1.6929h1.6934v-1.6934h3.3869v1.6934h-1.6934v1.6929h3.3869v1.6934h1.6929v1.6934h1.6934v5.0803h1.6934v16.933h-1.6934v1.6934h-5.0798v1.6934h-10.16v-1.6934h-3.3863v-1.6934h-3.3874v-1.6929h-1.6929v-1.6934h-3.3869v-3.3863h-3.3869v-1.6934h-1.6934v-1.6939h-1.6929v-1.6924h-5.0798v-1.6939h-5.0803v-1.6934h-1.6934v-16.933h1.6934v-5.0803h1.6929v-3.3869h1.6934v-3.3868h1.6939v1.6939h3.3863v1.6929h1.6934v1.6934h1.6929v-3.3869h-1.6929v-1.6934h-1.6934v-1.6934h-1.6934v-1.6929h3.3869v1.6929h3.3863v1.6934h3.3869v1.6934h1.6934v1.6929h1.6934v-3.3863h-1.6934v-1.6934h-1.6934v-1.6929h-3.3869v-1.6934h-5.0798v-1.6934h1.6934v-1.6929h1.6929v-1.6934h3.3874v-1.694h3.3863v-1.6929h-6.7737v1.6929h-3.3863v1.694h-1.6934v1.6934h-1.6929v1.6929h-1.6934v-1.6929h-1.6939v-1.6934h-1.6929v-1.694h-3.3869zm47.414 15.242h1.6934v-1.6939h-1.6934zm-50.801-3.3874v1.6934h1.6934v-1.6934zm80.626 8.9632h25.147v5.1997h5.3319v3.9744h-9.2795v-5.332h-17.224v27.969h17.224v-5.3066h9.2795v3.947h-5.3319v5.334h-25.147v-5.334h-5.3066v-25.252h5.3066zm42.449 0h30.453v5.1997h5.3325v9.3064h-5.3325v6.6662h5.3325v14.613h-9.2795v-15.973h-17.225v15.973h-9.281v-31.943zm47.758 0h9.2795v15.866h11.893v-15.866h9.279v14.506h-5.3066v5.3066h-5.332v15.973h-9.1741v-15.973h-5.334v-5.3066h-5.3046v-10.664zm42.449 0h30.453v5.1997h5.332v14.613h-5.332v5.332h-21.172v10.641h-9.281v-31.943zm47.756 0h30.453v3.8421h-10.639v31.943h-9.1756v-31.943h-10.639zm47.755 0h25.147v5.1997h5.334v3.9744h-9.2816v-5.332h-17.224v12.024h21.172v5.3066h5.334v9.279h-5.334v5.334h-25.147v-5.334h-5.3046v-3.947h9.2795v5.3066h17.224v-11.998h-21.199v-5.3066h-5.3046v-9.3064h5.3046zm42.451 0h30.451v3.8421h-10.639v31.943h-9.1736v-31.943h-10.639zm42.449 0h35.785v3.8421h-26.504v12.024h21.172v3.947h-21.172v11.998h26.504v3.9744h-35.785v-31.943zm47.756 0h30.453v5.1997h5.3319v9.3064h-5.3319v6.6662h5.3319v14.613h-9.2795v-15.973h-17.225v15.973h-9.281v-31.943zm53.063 0h25.146v5.1997h5.334v3.9744h-9.281v-5.332h-17.225v12.024h21.172v5.3066h5.334v9.279h-5.334v5.334h-25.146v-5.334h-5.3051v-3.947h9.2795v5.3066h17.225v-11.998h-21.199v-5.3066h-5.3051v-9.3064h5.3051zm-362.16 3.8421v12.024h17.225v-12.024h-12.024zm90.207 0v17.33h17.223v-17.33h-12.024zm228.17 0v12.024h17.225v-12.024h-12.024zm-408.4 7.5148v3.3869h1.6929v-3.3869z" color="#000000" color-rendering="auto" dominant-baseline="auto" fill="#80ff00" image-rendering="auto" shape-rendering="auto" solid-color="#000000" stop-color="#000000" style="font-feature-settings:normal;font-variant-alternates:normal;font-variant-caps:normal;font-variant-east-asian:normal;font-variant-ligatures:normal;font-variant-numeric:normal;font-variant-position:normal;font-variation-settings:normal;inline-size:0;isolation:auto;mix-blend-mode:normal;shape-margin:0;shape-padding:0;text-decoration-color:#000000;text-decoration-line:none;text-decoration-style:solid;text-indent:0;text-orientation:mixed;text-transform:none;white-space:normal"/>
 </g>
 <text fill="#000000" font-family="sans-serif" font-size="10.583px" style="line-height:1.25;shape-inside:url(#rect67956);white-space:pre" xml:space="preserve"/>
</svg>
