<svg width="2072" height="256" version="1.1" viewBox="0 0 548.2 67.733" xmlns="http://www.w3.org/2000/svg">
 <text fill="#000000" font-family="sans-serif" font-size="10.583px" style="line-height:1.25;shape-inside:url(#rect67956);white-space:pre" xml:space="preserve"/>
 <g transform="matrix(1.2 0 0 1.2 -31.582 -10.804)">
  <text x="93.944778" y="56.692596" fill="#000000" font-family="sans-serif" font-size="45.279px" stroke-width="1.132" style="line-height:1.25" xml:space="preserve"><tspan x="93.944778" y="56.692596" fill="#000000" font-family="'Karmatic Arcade'" stroke-width="1.132">CRYPTSTERS</tspan></text>
  <path transform="matrix(.26458 0 0 .26458 -.005625 0)" d="m136.8 34.029v5.332h-5.334v5.334h16v5.334h5.334v5.332h5.334v5.334h5.332v5.334h-21.332v5.332h10.666v10.668h-5.334v10.666h-5.332v5.334h-5.334v21.332h-5.334v26.668h-5.332v16h-16v5.332h-10.668v80h256v-149.98h-5.332v107.32h-10.668v5.334h-16v-37.334h-5.332v-16h-5.334v-10.666h-5.334v-10.668h-5.332v-5.332h-5.334v-10.668h5.334v-5.332h10.666v-5.334h10.666v-5.334h-26.666v5.334h-5.334v-21.334h-5.332v5.334h-5.334v16h5.334v5.334h-5.334v-5.334h-5.334v-5.334h-5.332v-5.332h-10.668v-5.334h-21.332v5.334h16v5.332h5.332v5.334h5.334v5.334h5.334v5.332h-10.668v5.334h-5.332v16h5.332v-5.334h5.334v-5.332h5.334v-5.334h10.666v5.334h-5.334v5.332h10.668v5.334h5.332v5.334h5.334v16h5.334v53.332h-5.334v5.334h-16v5.334h-32v-5.334h-10.666v-5.334h-10.668v-5.332h-5.332v-5.334h-10.668v-10.666h-10.666v-5.334h-5.334v-5.334h-5.332v-5.332h-16v-5.334h-16v-5.334h-5.334v-53.332h5.334v-16h5.332v-10.668h5.334v-10.666h5.334v5.334h10.666v5.332h5.334v5.334h5.332v-10.666h-5.332v-5.334h-5.334v-5.334h-5.334v-5.332h10.668v5.332h10.666v5.334h10.666v5.334h5.334v5.332h5.334v-10.666h-5.334v-5.334h-5.334v-5.332h-10.666v-5.334h-16v-5.334h5.334v-5.332h5.332v-5.334h10.668v-5.334h10.666v-5.332h-21.334v5.332h-10.666v5.334h-5.334v5.334h-5.332v5.332h-5.334v-5.332h-5.334v-5.334h-5.332v-5.334h-10.668v-5.332zm138.67 101.33h-5.332v10.668h5.332zm16-48h5.334v-5.332h-5.334zm5.334-5.332h5.334v-5.334h-5.334zm-154.67-10.668h-5.334v5.334h5.334z"/>
 </g>
</svg>
