<svg width="2072" height="256" version="1.1" viewBox="0 0 548.2 67.733" xmlns="http://www.w3.org/2000/svg">
 <text fill="#000000" font-family="sans-serif" font-size="10.583px" style="line-height:1.25;shape-inside:url(#rect67956);white-space:pre" xml:space="preserve"/>
 <g>
  <text x="81.15242" y="57.227055" fill="#000000" font-family="sans-serif" font-size="54.336px" stroke="#000000" stroke-width="1.3584" style="line-height:1.25" xml:space="preserve"><tspan x="81.15242" y="57.227055" fill="#000000" font-family="'Karmatic Arcade'" stroke="#000000" stroke-width="1.3584">CRYPTSTERS</tspan></text>
  <path d="m11.845 7.1617e-7v1.6929h-1.6935v1.6935h5.08v1.6935h1.6935v1.6929h1.6935v1.6935h1.6929v1.6935h-6.7729v1.6929h3.3865v3.3871h-1.6935v3.3865h-1.6929v1.6935h-1.6935v6.7729h-1.6935v8.4671h-1.6929v5.08h-5.08v1.6929h-3.3871v25.4h81.28v-47.62h-1.6929v34.073h-3.3871v1.6935h-5.08v-11.854h-1.6929v-5.08h-1.6935v-3.3865h-1.6935v-3.3871h-1.6929v-1.6929h-1.6935v-3.3871h1.6935v-1.6929h3.3865v-1.6935h3.3865v-1.6935h-8.4665v1.6935h-1.6935v-6.7736h-1.6929v1.6935h-1.6935v5.08h1.6935v1.6935h-1.6935v-1.6935h-1.6935v-1.6935h-1.6929v-1.6929h-3.3871v-1.6935h-6.7729v1.6935h5.08v1.6929h1.6929v1.6935h1.6935v1.6935h1.6935v1.6929h-3.3871v1.6935h-1.6929v5.08h1.6929v-1.6935h1.6935v-1.6929h1.6935v-1.6935h3.3865v1.6935h-1.6935v1.6929h3.3871v1.6935h1.6929v1.6935h1.6935v5.08h1.6935v16.933h-1.6935v1.6935h-5.08v1.6935h-10.16v-1.6935h-3.3865v-1.6935h-3.3871v-1.6929h-1.6929v-1.6935h-3.3871v-3.3865h-3.3865v-1.6935h-1.6935v-1.6935h-1.6929v-1.6929h-5.08v-1.6935h-5.08v-1.6935h-1.6935v-16.933h1.6935v-5.08h1.6929v-3.3871h1.6935v-3.3865h1.6935v1.6935h3.3865v1.6929h1.6935v1.6935h1.6929v-3.3865h-1.6929v-1.6935h-1.6935v-1.6935h-1.6935v-1.6929h3.3871v1.6929h3.3865v1.6935h3.3865v1.6935h1.6935v1.6929h1.6935v-3.3865h-1.6935v-1.6935h-1.6935v-1.6929h-3.3865v-1.6935h-5.08v-1.6935h1.6935v-1.6929h1.6929v-1.6935h3.3871v-1.6935h3.3865v-1.6929h-6.7736v1.6929h-3.3865v1.6935h-1.6935v1.6935h-1.6929v1.6929h-1.6935v-1.6929h-1.6935v-1.6935h-1.6929v-1.6935h-3.3871v-1.6929zm44.027 32.173h-1.6929v3.3871h1.6929zm5.08-15.24h1.6935v-1.6929h-1.6935zm1.6935-1.6929h1.6935v-1.6935h-1.6935zm-49.107-3.3871h-1.6935v1.6935h1.6935z" stroke="#000" stroke-width=".21167"/>
 </g>
</svg>
