<?xml version="1.0" encoding="UTF-8" standalone="no"?>
<svg
   xmlns:dc="http://purl.org/dc/elements/1.1/"
   xmlns:cc="http://creativecommons.org/ns#"
   xmlns:rdf="http://www.w3.org/1999/02/22-rdf-syntax-ns#"
   xmlns:svg="http://www.w3.org/2000/svg"
   xmlns="http://www.w3.org/2000/svg"
   xmlns:sodipodi="http://sodipodi.sourceforge.net/DTD/sodipodi-0.dtd"
   xmlns:inkscape="http://www.inkscape.org/namespaces/inkscape"
   width="250"
   height="250"
   viewBox="0 0 66.145832 66.145835"
   version="1.1"
   id="svg8"
   sodipodi:docname="jawa.svg"
   inkscape:export-filename="/Users/iquidus/dev/jawa/campsite/static/favicon.png"
   inkscape:export-xdpi="96"
   inkscape:export-ydpi="96"
   inkscape:version="1.0.2 (e86c8708, 2021-01-15)">
  <defs
     id="defs2" />
  <sodipodi:namedview
     id="base"
     pagecolor="#ffffff"
     bordercolor="#666666"
     borderopacity="1.0"
     inkscape:pageopacity="0.0"
     inkscape:pageshadow="2"
     inkscape:zoom="1.1934505"
     inkscape:cx="120.28258"
     inkscape:cy="286.5088"
     inkscape:document-units="mm"
     inkscape:current-layer="layer1"
     inkscape:document-rotation="0"
     showgrid="false"
     inkscape:window-width="1512"
     inkscape:window-height="916"
     inkscape:window-x="0"
     inkscape:window-y="38"
     inkscape:window-maximized="0"
     units="px" />
  <metadata
     id="metadata5">
    <rdf:RDF>
      <cc:Work
         rdf:about="">
        <dc:format>image/svg+xml</dc:format>
        <dc:type
           rdf:resource="http://purl.org/dc/dcmitype/StillImage" />
        <dc:title></dc:title>
      </cc:Work>
    </rdf:RDF>
  </metadata>
  <g
     inkscape:label="Layer 1"
     inkscape:groupmode="layer"
     id="layer1">
    <g
       id="g1024"
       transform="translate(-33.300092,-10.962095)">
      <g
         id="g982"
         transform="matrix(1.0129574,0,0,1.0129574,-0.46411134,-0.14204065)">
        <path
           style="fill:#6fceb7;fill-opacity:1;stroke:#000000;stroke-width:0.79375;stroke-linecap:round;stroke-linejoin:round;stroke-miterlimit:4;stroke-dasharray:none;stroke-opacity:1"
           d="m 45.836723,72.095954 c 0,0 4.97532,1.816979 7.550364,2.405425 3.092143,0.706612 6.250959,1.236892 9.421252,1.33635 4.845548,0.152013 9.715921,-0.347821 14.49937,-1.135896 3.128737,-0.515461 9.2208,-2.33861 9.2208,-2.33861 0,0 4.374154,-5.872691 5.946745,-9.153981 1.509826,-3.150326 3.274053,-9.955791 3.274053,-9.955791 0,0 -1.763058,-2.298884 -2.539061,-3.519831 -1.426001,-2.24364 -2.562132,-4.659066 -3.875407,-6.970495 -2.608004,-4.590216 -4.498425,-9.703864 -7.951269,-13.697564 -1.804044,-2.086632 -4.145219,-3.678175 -6.481286,-5.144939 -1.906613,-1.19712 -6.080382,-2.939964 -6.080382,-2.939964 l -0.668173,-9.621703 c 0,0 -9.220539,3.482337 -9.755339,4.744034 -1.601912,3.779226 -7.550363,16.83798 -7.550363,16.83798 0,0 -3.600749,3.053898 -5.078122,4.87767 -1.832315,2.261937 -3.305896,4.81442 -4.610399,7.416728 -2.025857,4.041311 -4.944485,12.628486 -4.944485,12.628486 l 0.668173,2.539061 z"
           id="path876"
           sodipodi:nodetypes="caaacacaaaaccscaaccc" />
        <path
           style="fill:#000000;stroke:#000000;stroke-width:0.529167;stroke-linecap:round;stroke-linejoin:round;stroke-miterlimit:4;stroke-dasharray:none;stroke-opacity:1"
           d="m 51.783471,68.420998 c 0,0 2.347222,1.226339 3.608139,1.603618 1.838148,0.549993 3.766806,0.783893 5.679477,0.935442 4.35182,0.344813 13.096206,-0.06682 13.096206,-0.06682 L 77.708614,70.3587 75.03592,69.890977 c 0,0 2.857588,-0.662672 4.142676,-1.336346 1.167856,-0.612219 3.140416,-2.405425 3.140416,-2.405425 l -1.804069,3.00678 -1.603616,2.271792 2.405425,-2.271792 c 0,0 2.909892,-4.062728 3.60814,-6.414468 0.489157,-1.647508 0.403815,-3.427763 0.334086,-5.144939 -0.06211,-1.529556 -0.668174,-4.543582 -0.668174,-4.543582 l -6.815373,-4.142676 c 0,0 -0.213988,-1.139103 -0.668173,-1.202714 -0.374323,-0.05243 -0.801809,0.801809 -0.801809,0.801809 0,0 -4.151371,-1.827734 -6.347651,-2.338609 -1.461363,-0.339926 -2.976441,-0.480325 -4.476766,-0.46772 -2.400593,0.02017 -4.822005,0.280229 -7.149459,0.868624 -1.948772,0.492662 -5.612659,2.204974 -5.612659,2.204974 l 1.202714,-3.741774 c 0,0 -1.305179,1.886861 -1.737255,2.939965 -0.174288,0.424794 -0.334086,1.336347 -0.334086,1.336347 l -3.006781,2.071341 -1.135896,-0.267272 -0.334086,2.071341 0.334086,0.334087 -2.138156,10.490327 c 0,0 3.590021,3.839665 5.679477,5.412208 1.339885,1.008409 4.34313,2.539061 4.34313,2.539061 z"
           id="path878"
           sodipodi:nodetypes="caacccaccccaaccacaaaccaccccccacc" />
        <circle
           style="fill:#e76754;fill-opacity:1;stroke-width:0.414914;stroke-linecap:round;stroke-linejoin:round"
           id="path847"
           cx="53.654362"
           cy="57.067417"
           r="4.6103992" />
        <circle
           style="fill:#e78254;fill-opacity:1;stroke-width:0.245457;stroke-linecap:round;stroke-linejoin:round"
           id="path849"
           cx="52.184338"
           cy="56.483814"
           r="1.8190104" />
        <circle
           style="fill:#e78254;fill-opacity:1;stroke-width:0.412749;stroke-linecap:round;stroke-linejoin:round"
           id="path851"
           cx="55.727863"
           cy="58.704426"
           r="0.92131698" />
        <circle
           style="fill:#e76754;fill-opacity:1;stroke-width:0.414914;stroke-linecap:round;stroke-linejoin:round"
           id="circle858"
           cx="77.797592"
           cy="56.972923"
           r="4.6103992" />
        <circle
           style="fill:#e78254;fill-opacity:1;stroke-width:0.245457;stroke-linecap:round;stroke-linejoin:round"
           id="circle860"
           cx="76.327568"
           cy="56.38932"
           r="1.8190104" />
        <circle
           style="fill:#e78254;fill-opacity:1;stroke-width:0.412749;stroke-linecap:round;stroke-linejoin:round"
           id="circle862"
           cx="79.871094"
           cy="58.609932"
           r="0.92131698" />
        <path
           style="fill:#000000;stroke:#000000;stroke-width:0.264583px;stroke-linecap:round;stroke-linejoin:round;stroke-opacity:1"
           d="M 43.230844,68.65486 40.758602,56.226826 41.560411,66.516704 Z"
           id="path880" />
        <path
           style="fill:#000000;stroke:#000000;stroke-width:0.264583px;stroke-linecap:round;stroke-linejoin:round;stroke-opacity:1"
           d="m 43.230844,48.910324 6.68174,-5.545844 c 0,0 -3.462335,1.822787 -4.87767,3.140416 -0.733574,0.682933 -1.80407,2.405428 -1.80407,2.405428 z"
           id="path882"
           sodipodi:nodetypes="ccac" />
        <path
           style="fill:#000000;stroke:#000000;stroke-width:0.264583px;stroke-linecap:round;stroke-linejoin:round;stroke-opacity:1"
           d="m 68.821902,21.311387 -3.34087,-3.003425 -2.405424,-2.004521 1.670433,0.734991 1.269532,0.868626 -1.069078,-1.870886 4.009043,3.274051 z"
           id="path884"
           sodipodi:nodetypes="cccccccc" />
        <path
           style="fill:none;stroke:#000000;stroke-width:0.529167;stroke-linecap:round;stroke-linejoin:round;stroke-miterlimit:4;stroke-dasharray:none;stroke-opacity:1"
           d="M 55.257974,38.286359 53.988443,36.01457"
           id="path886" />
        <path
           style="fill:none;stroke:#000000;stroke-width:0.396875;stroke-linecap:round;stroke-linejoin:round;stroke-miterlimit:4;stroke-dasharray:none;stroke-opacity:1"
           d="m 56.727957,36.281838 -0.935445,-1.00226"
           id="path888" />
        <path
           style="fill:#000000;stroke:#000000;stroke-width:0.529167;stroke-linecap:round;stroke-linejoin:round;stroke-miterlimit:4;stroke-dasharray:none;stroke-opacity:1"
           d="m 81.049483,33.475509 -9.822156,-5.011304 c 0,0 3.646382,1.196762 5.345391,2.071339 1.587318,0.817083 4.476765,2.939965 4.476765,2.939965 z"
           id="path890"
           sodipodi:nodetypes="ccac" />
        <path
           style="fill:none;stroke:#000000;stroke-width:0.264583px;stroke-linecap:round;stroke-linejoin:round;stroke-opacity:1"
           d="m 80.180856,31.203717 -0.06682,-0.53454"
           id="path892" />
        <path
           style="fill:none;stroke:#000000;stroke-width:0.529167;stroke-linecap:round;stroke-linejoin:round;stroke-miterlimit:4;stroke-dasharray:none;stroke-opacity:1"
           d="m 78.0427,29.733734 c 0,0 -1.195394,-1.567495 -1.937702,-2.204974 -0.501526,-0.430701 -1.670437,-1.069078 -1.670437,-1.069078"
           id="path894"
           sodipodi:nodetypes="cac" />
        <path
           style="fill:none;stroke:#000000;stroke-width:0.529167;stroke-linecap:round;stroke-linejoin:round;stroke-miterlimit:4;stroke-dasharray:none;stroke-opacity:1"
           d="M 84.791258,51.182113 85.19216,47.507159"
           id="path896" />
        <path
           style="fill:none;stroke:#000000;stroke-width:0.396875;stroke-linecap:round;stroke-linejoin:round;stroke-miterlimit:4;stroke-dasharray:none;stroke-opacity:1"
           d="m 86.060787,52.451645 0.601355,-1.135896"
           id="path898" />
        <path
           style="fill:#000000;stroke:#000000;stroke-width:0.264583px;stroke-linecap:round;stroke-linejoin:round;stroke-opacity:1"
           d="m 91.138908,65.881937 c 0,0 0.572433,-3.328808 0.668174,-5.011303 0.06708,-1.178744 -0.06682,-3.541321 -0.06682,-3.541321 l -1.403165,7.349913 -0.868627,3.474503 z"
           id="path900"
           sodipodi:nodetypes="cacccc" />
      </g>
    </g>
  </g>
</svg>
