<?xml version="1.0" encoding="UTF-8" standalone="no"?>
<svg
   xmlns:dc="http://purl.org/dc/elements/1.1/"
   xmlns:cc="http://creativecommons.org/ns#"
   xmlns:rdf="http://www.w3.org/1999/02/22-rdf-syntax-ns#"
   xmlns:svg="http://www.w3.org/2000/svg"
   xmlns="http://www.w3.org/2000/svg"
   xmlns:sodipodi="http://sodipodi.sourceforge.net/DTD/sodipodi-0.dtd"
   xmlns:inkscape="http://www.inkscape.org/namespaces/inkscape"
   width="250"
   height="250"
   viewBox="0 0 66.145832 66.145835"
   version="1.1"
   id="svg8"
   sodipodi:docname="icon.svg"
   inkscape:export-filename="/Users/iquidus/dev/jawa/campsite/static/favicon.png"
   inkscape:export-xdpi="96"
   inkscape:export-ydpi="96"
   inkscape:version="1.0.2 (e86c8708, 2021-01-15)">
  <defs
     id="defs2" />
  <sodipodi:namedview
     id="base"
     pagecolor="#ffffff"
     bordercolor="#666666"
     borderopacity="1.0"
     inkscape:pageopacity="0.0"
     inkscape:pageshadow="2"
     inkscape:zoom="1.1934505"
     inkscape:cx="124.65221"
     inkscape:cy="61.848877"
     inkscape:document-units="mm"
     inkscape:current-layer="layer1"
     inkscape:document-rotation="0"
     showgrid="false"
     inkscape:window-width="1512"
     inkscape:window-height="916"
     inkscape:window-x="0"
     inkscape:window-y="751"
     inkscape:window-maximized="0"
     units="px" />
  <metadata
     id="metadata5">
    <rdf:RDF>
      <cc:Work
         rdf:about="">
        <dc:format>image/svg+xml</dc:format>
        <dc:type
           rdf:resource="http://purl.org/dc/dcmitype/StillImage" />
        <dc:title />
      </cc:Work>
    </rdf:RDF>
  </metadata>
  <g
     inkscape:label="Layer 1"
     inkscape:groupmode="layer"
     id="layer1">
    <g
       id="g917">
      <path
         style="fill:#800080;fill-opacity:1;stroke:#000000;stroke-width:0.804035;stroke-linecap:round;stroke-linejoin:round;stroke-miterlimit:4;stroke-dasharray:none;stroke-opacity:1"
         d="m 12.666445,61.925994 c 0,0 5.039787,1.840522 7.648197,2.436593 3.132209,0.715768 6.331955,1.252919 9.543327,1.353666 4.908333,0.153982 9.841814,-0.352328 14.687244,-1.150614 3.169277,-0.522141 9.340278,-2.368913 9.340278,-2.368913 0,0 4.430831,-5.948786 6.023799,-9.272593 1.529389,-3.191146 3.316476,-10.084792 3.316476,-10.084792 0,0 -1.785903,-2.328671 -2.571961,-3.565439 -1.444478,-2.272711 -2.59533,-4.719435 -3.925622,-7.060814 C 54.086386,27.563395 52.17147,22.383487 48.673886,18.338039 46.846467,16.22437 44.474956,14.612205 42.10862,13.126435 40.177302,11.913804 35.949452,10.148377 35.949452,10.148377 L 35.272621,0.40200152 c 0,0 -9.340013,3.52745908 -9.881743,4.80550438 -1.622668,3.8281949 -7.648196,17.0561561 -7.648196,17.0561561 0,0 -3.647405,3.093469 -5.143921,4.940872 -1.856057,2.291246 -3.3487318,4.876803 -4.6701378,7.51283 C 5.8765163,38.81104 2.9200705,47.509482 2.9200705,47.509482 l 0.6768308,2.571961 z"
         id="path876"
         sodipodi:nodetypes="caaacacaaaaccscaaccc" />
      <path
         style="fill:#000000;stroke:#000000;stroke-width:0.536024;stroke-linecap:round;stroke-linejoin:round;stroke-miterlimit:4;stroke-dasharray:none;stroke-opacity:1"
         d="m 18.690247,58.20342 c 0,0 2.377636,1.242229 3.654891,1.624397 1.861966,0.557119 3.815614,0.79405 5.753069,0.947563 4.408208,0.349281 13.265898,-0.06769 13.265898,-0.06769 l 3.587208,-0.541464 -2.707326,-0.473784 c 0,0 2.894615,-0.671258 4.196355,-1.353661 1.182988,-0.620152 3.181107,-2.436593 3.181107,-2.436593 l -1.827445,3.04574 -1.624394,2.301228 2.436593,-2.301228 c 0,0 2.947596,-4.115371 3.654892,-6.497583 0.495495,-1.668855 0.409047,-3.472178 0.338415,-5.211604 -0.06292,-1.549375 -0.676832,-4.602455 -0.676832,-4.602455 l -6.903683,-4.196354 c 0,0 -0.21676,-1.153863 -0.67683,-1.218298 -0.379174,-0.05311 -0.812199,0.812198 -0.812199,0.812198 0,0 -4.205162,-1.851417 -6.4299,-2.368911 -1.480298,-0.344331 -3.015008,-0.486549 -4.534773,-0.473781 -2.431699,0.02043 -4.884486,0.28386 -7.242097,0.879879 -1.974023,0.499046 -5.685385,2.233545 -5.685385,2.233545 l 1.218298,-3.790258 c 0,0 -1.322091,1.91131 -1.759765,2.97806 -0.176547,0.430298 -0.338415,1.353662 -0.338415,1.353662 l -3.045741,2.09818 -1.150614,-0.270735 -0.338415,2.09818 0.338415,0.338416 -2.165861,10.626255 c 0,0 3.636538,3.889417 5.753068,5.482336 1.357246,1.021475 4.399406,2.571961 4.399406,2.571961 z"
         id="path878"
         sodipodi:nodetypes="caacccaccccaaccacaaaccaccccccacc" />
      <circle
         style="fill:#ffff00;fill-opacity:1;stroke-width:0.42029;stroke-linecap:round;stroke-linejoin:round"
         id="path847"
         cx="20.585381"
         cy="46.702728"
         r="4.6701379" />
      <circle
         style="fill:#ffffff;fill-opacity:1;stroke-width:0.248637;stroke-linecap:round;stroke-linejoin:round;opacity:0.6"
         id="path849"
         cx="19.096308"
         cy="46.111561"
         r="1.8425801" />
      <circle
         style="fill:#ffffff;fill-opacity:1;stroke-width:0.418097;stroke-linecap:round;stroke-linejoin:round;opacity:0.6"
         id="path851"
         cx="22.685749"
         cy="48.360947"
         r="0.93325484" />
      <circle
         style="fill:#ffff00;fill-opacity:1;stroke-width:0.42029;stroke-linecap:round;stroke-linejoin:round"
         id="circle858"
         cx="45.041443"
         cy="46.60701"
         r="4.6701379" />
      <circle
         style="fill:#ffffff;fill-opacity:1;stroke-width:0.248637;stroke-linecap:round;stroke-linejoin:round;opacity:0.6"
         id="circle860"
         cx="43.552372"
         cy="46.015842"
         r="1.8425801" />
      <circle
         style="fill:#ffffff;fill-opacity:1;stroke-width:0.418097;stroke-linecap:round;stroke-linejoin:round;opacity:0.6"
         id="circle862"
         cx="47.141811"
         cy="48.265228"
         r="0.93325484" />
      <path
         style="fill:#000000;stroke:#000000;stroke-width:0.268011px;stroke-linecap:round;stroke-linejoin:round;stroke-opacity:1"
         d="M 10.0268,58.440312 7.5225245,45.851243 8.3347229,56.274452 Z"
         id="path880" />
      <path
         style="fill:#000000;stroke:#000000;stroke-width:0.268011px;stroke-linecap:round;stroke-linejoin:round;stroke-opacity:1"
         d="m 10.0268,38.439939 6.768318,-5.617704 c 0,0 -3.507198,1.846405 -4.940872,3.181108 -0.743079,0.691782 -1.827446,2.436596 -1.827446,2.436596 z"
         id="path882"
         sodipodi:nodetypes="ccac" />
      <path
         style="fill:#000000;stroke:#000000;stroke-width:0.268011px;stroke-linecap:round;stroke-linejoin:round;stroke-opacity:1"
         d="M 35.949452,10.483391 32.565293,7.4410496 30.128701,5.4105552 31.820778,6.1550698 33.10676,7.0349509 32.02383,5.1398231 36.084819,8.4562973 Z"
         id="path884"
         sodipodi:nodetypes="cccccccc" />
      <path
         style="fill:none;stroke:#000000;stroke-width:0.536024;stroke-linecap:round;stroke-linejoin:round;stroke-miterlimit:4;stroke-dasharray:none;stroke-opacity:1"
         d="M 22.209771,27.678315 20.92379,25.377089"
         id="path886" />
      <path
         style="fill:none;stroke:#000000;stroke-width:0.402017;stroke-linecap:round;stroke-linejoin:round;stroke-miterlimit:4;stroke-dasharray:none;stroke-opacity:1"
         d="M 23.698801,25.64782 22.751235,24.632574"
         id="path888" />
      <path
         style="fill:#000000;stroke:#000000;stroke-width:0.536024;stroke-linecap:round;stroke-linejoin:round;stroke-miterlimit:4;stroke-dasharray:none;stroke-opacity:1"
         d="m 48.335471,22.805129 -9.949426,-5.076238 c 0,0 3.69363,1.212269 5.414653,2.098178 1.607886,0.827671 4.534773,2.97806 4.534773,2.97806 z"
         id="path890"
         sodipodi:nodetypes="ccac" />
      <path
         style="fill:none;stroke:#000000;stroke-width:0.268011px;stroke-linecap:round;stroke-linejoin:round;stroke-opacity:1"
         d="m 47.455588,20.5039 -0.06768,-0.541466"
         id="path892" />
      <path
         style="fill:none;stroke:#000000;stroke-width:0.536024;stroke-linecap:round;stroke-linejoin:round;stroke-miterlimit:4;stroke-dasharray:none;stroke-opacity:1"
         d="m 45.289727,19.01487 c 0,0 -1.210883,-1.587806 -1.962809,-2.233545 -0.508025,-0.436282 -1.692082,-1.08293 -1.692082,-1.08293"
         id="path894"
         sodipodi:nodetypes="cac" />
      <path
         style="fill:none;stroke:#000000;stroke-width:0.536024;stroke-linecap:round;stroke-linejoin:round;stroke-miterlimit:4;stroke-dasharray:none;stroke-opacity:1"
         d="m 52.125729,40.741164 0.406097,-3.722572"
         id="path896" />
      <path
         style="fill:none;stroke:#000000;stroke-width:0.402017;stroke-linecap:round;stroke-linejoin:round;stroke-miterlimit:4;stroke-dasharray:none;stroke-opacity:1"
         d="m 53.411708,42.027146 0.609147,-1.150614"
         id="path898" />
      <path
         style="fill:#000000;stroke:#000000;stroke-width:0.268011px;stroke-linecap:round;stroke-linejoin:round;stroke-opacity:1"
         d="m 58.555628,55.63146 c 0,0 0.579851,-3.371941 0.676832,-5.076237 0.06795,-1.194017 -0.06769,-3.587207 -0.06769,-3.587207 l -1.421346,7.445149 -0.879882,3.519523 z"
         id="path900"
         sodipodi:nodetypes="cacccc" />
    </g>
  </g>
</svg>
