<?xml version="1.0" encoding="UTF-8" standalone="no"?>
<svg
   xmlns:dc="http://purl.org/dc/elements/1.1/"
   xmlns:cc="http://creativecommons.org/ns#"
   xmlns:rdf="http://www.w3.org/1999/02/22-rdf-syntax-ns#"
   xmlns:svg="http://www.w3.org/2000/svg"
   xmlns="http://www.w3.org/2000/svg"
   xmlns:sodipodi="http://sodipodi.sourceforge.net/DTD/sodipodi-0.dtd"
   xmlns:inkscape="http://www.inkscape.org/namespaces/inkscape"
   width="1305"
   height="240"
   version="1.1"
   viewBox="0 0 345.27 63.5"
   id="svg69253"
   sodipodi:docname="logo.svg"
   inkscape:version="1.0.2 (e86c8708, 2021-01-15)">
  <metadata
     id="metadata69259">
    <rdf:RDF>
      <cc:Work
         rdf:about="">
        <dc:format>image/svg+xml</dc:format>
        <dc:type
           rdf:resource="http://purl.org/dc/dcmitype/StillImage" />
        <dc:title></dc:title>
      </cc:Work>
    </rdf:RDF>
  </metadata>
  <defs
     id="defs69257" />
  <sodipodi:namedview
     pagecolor="#ffffff"
     bordercolor="#666666"
     borderopacity="1"
     objecttolerance="10"
     gridtolerance="10"
     guidetolerance="10"
     inkscape:pageopacity="0"
     inkscape:pageshadow="2"
     inkscape:window-width="2201"
     inkscape:window-height="738"
     id="namedview69255"
     showgrid="false"
     inkscape:zoom="0.41992338"
     inkscape:cx="-380.9468"
     inkscape:cy="170.67193"
     inkscape:window-x="1003"
     inkscape:window-y="1092"
     inkscape:window-maximized="0"
     inkscape:current-layer="svg69253"
     inkscape:document-rotation="0" />
  <text
     fill="#000000"
     font-family="sans-serif"
     font-size="10.583px"
     style="line-height:1.25;shape-inside:url(#rect67956);white-space:pre;"
     xml:space="preserve"
     id="text69251" />
  <path
     id="path908"
     style="font-style:normal;font-variant:normal;font-weight:normal;font-stretch:normal;font-size:47.7745px;line-height:1.25;font-family:'Perfect Dark (BRK)';-inkscape-font-specification:'Perfect Dark (BRK)';fill:#ffff00;fill-opacity:1;stroke:#800080;stroke-width:3.13751;stroke-miterlimit:4;stroke-dasharray:none;paint-order:stroke fill markers"
     d="M 11.33806,1.5692997 22.979391,13.641591 h 75.450876 15.076543 l 48.28899,48.289035 h 18.10788 L 119.54339,1.5692997 h -9.04088 z m 156.49337,0 V 43.822718 l 18.10883,18.107908 H 213.1021 L 201.02988,49.858387 h -9.05394 l -9.05396,-9.053966 V 1.5692997 Z m 33.19845,0 V 43.822718 l 18.10789,18.107908 h 30.18107 V 13.62853 l 0.013,0.0137 h 18.10884 l 48.28824,48.289016 H 333.8368 L 273.47655,1.5687892 H 249.319 237.60491 234.22845 V 49.857853 h -9.05395 l -9.05393,-9.053942 V 1.5688058 Z M 80.322353,19.678217 V 37.78615 L 68.250113,49.858387 H 38.069014 L 25.996751,61.930626 H 77.304053 L 95.411947,43.822718 V 19.678217 Z m 18.093904,0 V 61.930626 H 113.50681 V 46.84009 h 27.16278 L 128.59735,34.767823 H 113.50681 V 19.678217 Z m 153.933953,0 v 42.252409 h 15.09055 V 46.84009 h 27.16183 L 282.53035,34.767823 H 267.44076 V 19.678217 Z"
     inkscape:export-xdpi="96"
     inkscape:export-ydpi="96" />
</svg>
