<?xml version="1.0" encoding="UTF-8" standalone="no"?>
<svg
   xmlns:dc="http://purl.org/dc/elements/1.1/"
   xmlns:cc="http://creativecommons.org/ns#"
   xmlns:rdf="http://www.w3.org/1999/02/22-rdf-syntax-ns#"
   xmlns:svg="http://www.w3.org/2000/svg"
   xmlns="http://www.w3.org/2000/svg"
   xmlns:sodipodi="http://sodipodi.sourceforge.net/DTD/sodipodi-0.dtd"
   xmlns:inkscape="http://www.inkscape.org/namespaces/inkscape"
   width="1305"
   height="240"
   version="1.1"
   viewBox="0 0 345.27 63.5"
   id="svg69253"
   sodipodi:docname="logo-black.svg"
   inkscape:version="1.0.2 (e86c8708, 2021-01-15)">
  <metadata
     id="metadata69259">
    <rdf:RDF>
      <cc:Work
         rdf:about="">
        <dc:format>image/svg+xml</dc:format>
        <dc:type
           rdf:resource="http://purl.org/dc/dcmitype/StillImage" />
      </cc:Work>
    </rdf:RDF>
  </metadata>
  <defs
     id="defs69257" />
  <sodipodi:namedview
     pagecolor="#ffffff"
     bordercolor="#666666"
     borderopacity="1"
     objecttolerance="10"
     gridtolerance="10"
     guidetolerance="10"
     inkscape:pageopacity="0"
     inkscape:pageshadow="2"
     inkscape:window-width="2201"
     inkscape:window-height="738"
     id="namedview69255"
     showgrid="false"
     inkscape:zoom="0.83984674"
     inkscape:cx="652.5"
     inkscape:cy="120"
     inkscape:window-x="1168"
     inkscape:window-y="1285"
     inkscape:window-maximized="0"
     inkscape:current-layer="svg69253" />
  <path
     transform="matrix(.26458 0 0 .26458 -.0027768 0)"
     d="m421.48 3.8652c-15.876 0-29.898 1.4435-42.062 4.3301-12.165 2.8866-22.783 6.7011-31.855 11.443-9.0722 4.5361-16.804 9.7941-23.195 15.773-6.1856 5.9794-11.239 12.062-15.156 18.248-9.6907 14.433-15.154 30.928-16.391 49.484v132.68h72.68v-61.236-55.67c0-18.144 4.742-31.031 14.227-38.66 9.6907-7.6289 23.094-11.443 40.207-11.443l53.506 0.61914v49.484h-88.145l0.30859 55.361 87.834 0.30859v61.236h73.609v-231.96h-73.609-51.957zm157.37 0v132.99c1.4433 18.351 6.9061 34.743 16.391 49.176 3.9175 6.1856 8.9707 12.269 15.156 18.248 6.3918 5.9794 14.019 11.34 22.885 16.082 9.0721 4.5361 19.692 8.2462 31.857 11.133 12.165 2.6804 26.184 4.0215 42.061 4.0215l51.959 0.3086h73.609v-231.96h-73.609v166.7l-53.506 0.61914c-17.113 0-30.514-3.7121-40.205-11.135-9.4845-7.6289-14.227-20.618-14.227-38.969v-117.22h-72.371zm596.5 0c-15.876 0-29.898 1.4435-42.062 4.3301-12.165 2.8866-22.783 6.7011-31.856 11.443-9.0721 4.5361-16.804 9.7941-23.195 15.773-6.1855 5.9794-11.237 12.062-15.154 18.248-9.6907 14.433-15.156 30.928-16.392 49.484v132.68h72.682v-61.236-55.67c0-18.144 4.742-31.031 14.227-38.66 9.6907-7.6289 23.092-11.443 40.205-11.443l53.506 0.61914v49.484h-88.144l0.3086 55.361 87.836 0.30859v61.236h73.607v-231.96h-73.607-51.959zm-990.03 0.61914v114.74 2.7832c0 7.6289-0.82512 14.33-2.4746 20.104-1.6495 5.7732-3.9161 10.722-6.8027 14.846-2.6804 4.1237-5.7741 7.629-9.2793 10.516-3.5052 2.8866-7.1129 5.2576-10.824 7.1133-8.6598 4.3299-18.66 6.7009-30 7.1133h-121.86v54.434h120.31c20.619 0 39.277-2.7846 55.979-8.3516 16.907-5.7732 31.342-13.814 43.301-24.123 12.165-10.309 21.545-22.578 28.143-36.805 6.5979-14.433 9.8984-30.309 9.8984-47.629v-114.74h-76.393zm754.15 0v164.54h-83.814v66.803h157.42v-231.34h-73.609zm21.342 5.877c1.2372 0 1.958 0.51399 2.1641 1.5449 0.41222 0.82474 0.51666 1.8566 0.31055 3.0938-0.20619 1.0309-0.51731 2.2676-0.92969 3.7109-0.41245 1.2371-0.72162 2.269-0.92773 3.0938-1.031-0.61856-1.6494-1.3413-1.8555-2.166 0-1.0309 0.10443-2.0609 0.31055-3.0918 0.41242-1.0309 0.72162-2.0628 0.92773-3.0938 0.41237-1.0309 0.41237-2.0609 0-3.0918zm-501.6 1.8555c0.61864 0.20618 1.0322 0.51536 1.2383 0.92773 0.41238 0.41237 0.92637 0.61914 1.5449 0.61914 0 1.0309 0.51594 1.5449 1.5469 1.5449-1.6495 1.2371-4.1229 2.3714-7.4219 3.4023-3.299 0.82474-6.0835 0.41316-8.3516-1.2363 0-2.0619 0.61835-3.0938 1.8555-3.0938s2.4758 0.30918 3.7129 0.92774c1.4433 0.41237 2.7824 0.61914 4.0195 0.61914 1.2371-0.20618 1.8555-1.4429 1.8555-3.7109zm545.82 0c0.6186 1.2371 0.5142 2.3714-0.3106 3.4023-0.8247 0.82474-1.7523 1.4431-2.7832 1.8555-1.0309 0.20618-2.0608 0.10182-3.0918-0.31055-0.82468-0.41237-1.1338-1.4423-0.92774-3.0918 1.0309-0.41237 1.7517-0.2056 2.164 0.61914 0.4124 0.61856 1.1351 0.92774 2.1661 0.92774-0.4124-2.268 0.5151-3.4023 2.7832-3.4023zm208.04 0c0.6186 0.20618 1.0302 0.51536 1.2364 0.92773 0.4123 0.41237 0.9283 0.61914 1.5468 0.61914 0 1.0309 0.516 1.5449 1.5469 1.5449-1.6495 1.2371-4.1249 2.3714-7.4238 3.4023-3.299 0.82474-6.0816 0.41316-8.3496-1.2363 0-2.0619 0.6183-3.0938 1.8554-3.0938 1.2372 0 2.4739 0.30918 3.711 0.92774 1.4433 0.41237 2.7843 0.61914 4.0215 0.61914 1.2371-0.20618 1.8554-1.4429 1.8554-3.7109zm-441.81 1.1973c0.38337 0 0.78099 0.01329 1.1934 0.039063-0.41238 0.82474-1.0307 1.4431-1.8555 1.8555-0.82475 0.20618-1.6499 0.51536-2.4746 0.92773-0.61856 0.41237-1.1326 1.0327-1.5449 1.8574-0.41245 0.82474-0.30997 2.0615 0.30859 3.7109 3.0928-2.0619 5.5662-2.887 7.4219-2.4746 2.0618 0.20619 3.8145 0.61777 5.2578 1.2363 1.6495 0.61856 3.1973 0.82533 4.6406 0.61914 1.6495-0.20619 3.4002-1.8564 5.2559-4.9492 0 0.82474 0.31113 1.2383 0.92969 1.2383 0.82475-0.20619 1.4431-0.20619 1.8555 0-1.0309 1.6495-1.3401 3.9181-0.92774 6.8047-2.8866 1.0309-5.2576 1.5449-7.1133 1.5449l-5.5684-0.61719c-1.6495-0.20619-3.5046-0.41296-5.5664-0.61914-1.8557-0.20619-4.331 5.84e-4 -7.4238 0.61914 0-1.6495-0.10248-3.2997-0.30859-4.9492v-4.9492c1.2629-1.2629 3.2363-1.8945 5.9199-1.8945zm-159.63 1.8945c-1.4433 3.5052-3.196 5.567-5.2578 6.1855-2.0619 0.61856-4.3305 0.82532-6.8047 0.61914-2.4742-0.41237-5.1544-0.92832-8.041-1.5469-2.6804-0.61856-5.463-0.41179-8.3496 0.61914 1.8557-2.0619 3.9175-3.1962 6.1856-3.4023 2.268-0.20618 4.6391-0.20618 7.1133 0 2.6804 0.20619 5.2582 0.31055 7.7324 0.31055 2.6804-0.20619 5.1538-1.1357 7.4219-2.7852zm-173.63 0.83203c0.37371 0.012887 0.74268 0.044156 1.1035 0.095703 1.4433 0 2.4732 0.51595 3.0918 1.5469-0.20619 1.6495-0.92697 2.6814-2.1641 3.0938-1.2371 0.41237-2.6806 0.72155-4.3301 0.92774h-4.9492c-1.6495-0.20618-3.093-0.20618-4.3301 0 0.61856-1.2371 1.6505-2.269 3.0938-3.0938 1.6495-1.0309 3.2978-1.7517 4.9473-2.1641 1.2371-0.30928 2.416-0.44491 3.5371-0.40625zm753.87 0c0.3737 0.012887 0.7407 0.044156 1.1015 0.095703 1.4433 0 2.4733 0.51595 3.0918 1.5469-0.2062 1.6495-0.927 2.6814-2.1641 3.0938-1.2371 0.41237-2.6805 0.72155-4.33 0.92774h-4.9473c-1.6495-0.20618-3.093-0.20618-4.3301 0 0.6186-1.2371 1.6485-2.269 3.0918-3.0938 1.6495-1.0309 3.2997-1.7517 4.9492-2.1641 1.2371-0.30928 2.416-0.44491 3.5372-0.40625zm-801.63 5.3535c0.61856 0 1.2369 0.10436 1.8555 0.31055 1.4433 0.20618 2.3708 0.72018 2.7832 1.5449 0.20618 1.6495 0.00137 2.6814-0.61719 3.0938-0.61856 0.41237-1.5461 0.61914-2.7832 0.61914h-3.4024c-1.2371-0.20619-2.269-0.20619-3.0938 0-0.61861-1.4433-0.51417-2.5776 0.31055-3.4023 0.82475-1.0309 1.8547-1.6493 3.0918-1.8555 0.61857-0.20619 1.2369-0.31055 1.8555-0.31055zm584.17 0c4.1237 0.61856 8.5566 1.0321 13.299 1.2383 4.7423 0 10.103-0.20677 16.082-0.61914 0 0.41237-1.4435 1.1351-4.3301 2.166-2.8866 0.82474-6.0808 1.5455-9.5859 2.1641-3.5052 0.41237-6.8056 0.30996-9.8984-0.30859-3.0928-0.61856-4.9478-2.1664-5.5664-4.6406zm169.69 0c0.6185 0 1.2369 0.10436 1.8555 0.31055 1.4433 0.20618 2.3708 0.72018 2.7832 1.5449 0.2061 1.6495-6e-4 2.6814-0.6192 3.0938-0.6185 0.41237-1.5461 0.61914-2.7832 0.61914h-3.4023c-1.2372-0.20619-2.2671-0.20619-3.0918 0-0.6187-1.4433-0.5162-2.5776 0.3086-3.4023 0.8247-1.0309 1.8546-1.6493 3.0918-1.8555 0.6185-0.20619 1.2388-0.31055 1.8574-0.31055zm-766.55 0.92773c1.4433 0.41237 2.7824 0.72155 4.0195 0.92773 1.4432 0.20619 2.0616 1.4448 1.8555 3.7129-1.0309 1e-6 -2.1633 0.10241-3.4004 0.30859h-3.7129c-0.20618-1.4433-0.10182-2.3708 0.31055-2.7832 0.61856-0.41237 0.92774-1.1351 0.92774-2.166zm753.87 0c1.4433 0.41237 2.7844 0.72155 4.0215 0.92773 1.4433 0.20619 2.0616 1.4448 1.8555 3.7129-1.0309 0-2.1652 0.10241-3.4024 0.30859h-3.7109c-0.2062-1.4433-0.1038-2.3708 0.3086-2.7832 0.6186-0.41237 0.9277-1.1351 0.9277-2.166zm-631.68 0.25195c0.39949-0.012886 0.80638 0.007047 1.2188 0.058594 1.6495 0 3.2978 0.51595 4.9473 1.5469 1.6495 1.0309 2.6814 2.4725 3.0938 4.3281-3.0928 0.82474-5.5682 0.72233-7.4238-0.30859-1.8557-1.0309-4.2267-1.3401-7.1133-0.92773 0-1.8557 0.61837-3.0924 1.8555-3.7109 1.0825-0.61856 2.2234-0.94767 3.4219-0.98633zm753.87 0c0.3995-0.012886 0.8044 0.007047 1.2168 0.058594 1.6495 0 3.2997 0.51595 4.9492 1.5469s2.6794 2.4725 3.0918 4.3281c-3.0928 0.82474-5.5662 0.72233-7.4219-0.30859s-4.2267-1.3401-7.1133-0.92773c0-1.8557 0.6184-3.0924 1.8555-3.7109 1.0825-0.61856 2.2234-0.94767 3.4219-0.98633zm-886.26 0.13477c0.92783-0.051547 1.8554 0.026236 2.7832 0.23242 1.8557 0.20618 3.4035 1.1337 4.6406 2.7832-2.8866 2.6804-6.0827 4.1239-9.5879 4.3301-3.299 0.20618-6.8043-0.51458-10.516-2.1641 1.2371-0.82474 2.6806-1.6499 4.3301-2.4746 1.8557-1.0309 3.7107-1.7536 5.5664-2.166 0.92784-0.30928 1.8554-0.48947 2.7832-0.54102zm753.87 0c0.9278-0.051547 1.8553 0.026236 2.7832 0.23242 1.8556 0.20618 3.4015 1.1337 4.6386 2.7832-2.8866 2.6804-6.0827 4.1239-9.5879 4.3301-3.2989 0.20618-6.8042-0.51458-10.516-2.1641 1.2371-0.82474 2.6806-1.6499 4.3301-2.4746 1.8557-1.0309 3.7107-1.7536 5.5664-2.166 0.9278-0.30928 1.8573-0.48947 2.7852-0.54102zm-324.33 1.1602c2.268 1.0309 3.2979 2.372 3.0918 4.0215-0.20616 1.6495-0.92694 2.9886-2.1641 4.0195-1.2371 1.0309-2.5782 1.4445-4.0215 1.2383-1.4434-0.41237-2.2665-1.9602-2.4727-4.6406 1.4434-0.61856 2.2666-0.30938 2.4727 0.92773 0.20619 1.2371 0.82454 1.9598 1.8555 2.166 1.2371-0.41237 1.8574-0.92832 1.8574-1.5469s-0.20677-1.2369-0.61914-1.8555c-0.41245-0.61856-0.72162-1.2369-0.92773-1.8555-0.20619-0.82474 0.10298-1.6499 0.92773-2.4746zm-196.39 1.5469c-0.41245 1.2371-0.72162 2.2671-0.92773 3.0918s-0.3086 1.7542-0.3086 2.7852h4.3301c-0.41237 2.0619-1.1351 3.1942-2.166 3.4004-0.82475 0-1.8547-0.41159-3.0918-1.2363-1.0309-1.0309-2.0628-2.2676-3.0938-3.7109-1.031-1.4433-1.6494-2.68-1.8555-3.7109h3.4024c1.2371 0 2.4738-0.20677 3.7109-0.61914zm-119.46 0.125c1.6334 0.01933 3.2231 0.18486 4.7695 0.49414-2.6804 2.4742-5.1538 4.1225-7.4219 4.9473-2.268 0.82474-4.639 1.3407-7.1133 1.5469h-7.1133c-2.4742 0-5.2588 0.41159-8.3516 1.2363-0.20611-0.82474-0.30859-1.6479-0.30859-2.4727v-2.4746c6.5979-0.20619 12.267-0.9289 17.01-2.166 2.9639-0.7732 5.807-1.1435 8.5293-1.1113zm753.87 0c1.6333 0.01933 3.2231 0.18486 4.7695 0.49414-2.6804 2.4742-5.1558 4.1225-7.4238 4.9473-2.2681 0.82474-4.6391 1.3407-7.1133 1.5469h-7.1133c-2.4742 0-5.2568 0.41159-8.3496 1.2363-0.2061-0.82474-0.3086-1.6479-0.3086-2.4727v-2.4746c6.5979-0.20619 12.268-0.9289 17.01-2.166 2.9639-0.7732 5.807-1.1435 8.5293-1.1113zm-258.63 1.7305c-0.41237 1.0309-0.61914 2.1652-0.61914 3.4023 0 0.33636-0.01639 0.66326-0.04687 0.98437 0.14596 0.27232 0.26871 0.56061 0.35742 0.87109 0.61856 1.4433 1.1345 3.0935 1.5469 4.9492-1.8132 0.32967-3.0252-0.011881-3.6523-1-0.02157 0.022625-0.03845 0.050167-0.06055 0.072266-0.61856 0.61856-1.5461 0.92773-2.7832 0.92773 0.61863-0.61856 1.0322-1.548 1.2383-2.7852 0.20611-1.2371 0.30859-2.3695 0.30859-3.4004 0.08682-0.5209 0.19694-0.97548 0.32032-1.3867-0.00207-0.15833-0.01172-0.31031-0.01172-0.4707 0.05062 0.018982 0.09507 0.042742 0.14453 0.0625 0.13999-0.38426 0.29589-0.72216 0.47461-0.99023 0.61856-0.82474 1.5461-1.2363 2.7832-1.2363zm-3.2578 2.2266c-0.04701 0.12905-0.09017 0.26606-0.13281 0.4082 0.0271 2.0806 0.22421 3.9904 0.60742 5.7148 0.0827 0.3308 0.21181 0.60955 0.36914 0.85742 0.58225-0.61066 0.97891-1.4082 1.1777-2.4023 0.30026-0.75063 0.48868-1.558 0.57032-2.418-0.51173-0.95472-1.3764-1.6746-2.5918-2.1602zm-766.97-0.37109c1.2371 0 2.5762 0.10241 4.0195 0.30859 1.4433 0.20618 2.68 0.10378 3.7109-0.30859-0.61856 1.2371-1.2369 2.0622-1.8555 2.4746-0.61856 0.20618-1.2369 0.30859-1.8555 0.30859h-2.1641c-0.82474 0-1.7523 0.30918-2.7832 0.92773 0.41238 1.0309 1.0307 1.6493 1.8555 1.8555 0.82475 0.20618 1.6479 0.31055 2.4727 0.31055 0.82474-0.20618 1.5475-0.20618 2.166 0 0.61855 0 0.92773 0.30918 0.92773 0.92773 0 1.8557-0.30918 2.8856-0.92773 3.0918-0.41238 0.20619-1.0307 0.20619-1.8555 0-0.61856-0.20618-1.3413-0.411-2.166-0.61719-0.82474-0.20619-1.6479 0.10299-2.4727 0.92774 1.0309 2.4742 2.5768 3.6085 4.6387 3.4023-1.6495 2.0619-4.5364 3.2986-8.6602 3.7109-1.6495-1.6495-2.2678-3.1973-1.8555-4.6406 0.61856-1.6495 1.3393-3.091 2.1641-4.3281 0.82475-1.2371 1.3407-2.3714 1.5469-3.4023 0.41237-1.0309-0.41275-1.9585-2.4746-2.7832 0.41237-1.0309 1.1351-1.6512 2.166-1.8574 1.0309-0.20619 2.1652-0.30859 3.4024-0.30859zm243.89 0v6.4941c-2.6804-0.61856-4.949-0.82337-6.8047-0.61719-1.6495 0.20618-3.2978 0.61777-4.9473 1.2363-1.4433 0.41237-3.0936 0.72155-4.9492 0.92773-1.6495 0.20619-3.8137 0.001369-6.4941-0.61719 1.4433-2.6804 3.0916-4.1239 4.9473-4.3301 1.8557-0.41237 3.8151-0.51673 5.877-0.31055 2.268 0.20618 4.4323 0.31055 6.4941 0.31055 2.0618-0.20618 4.0213-1.2381 5.877-3.0938zm753.87 0v6.4941c-2.6804-0.61856-4.947-0.82337-6.8027-0.61719-1.6495 0.20618-3.2997 0.61777-4.9492 1.2363-1.4433 0.41237-3.0936 0.72155-4.9492 0.92773-1.6495 0.20619-3.8138 0.001369-6.4942-0.61719 1.4433-2.6804 3.0936-4.1239 4.9492-4.3301 1.8557-0.41237 3.8132-0.51673 5.875-0.31055 2.2681 0.20618 4.4343 0.31055 6.4961 0.31055 2.0619-0.20618 4.0194-1.2381 5.875-3.0938zm-416.56 0.53711c0.40593 0.028995 0.84078 0.15867 1.3047 0.39062-0.41237 1.8557-1.2356 3.1967-2.4727 4.0215-1.2371 0.82474-2.6806 1.5455-4.3301 2.1641-1.4433 0.41237-3.0935 0.92832-4.9492 1.5469-1.8557 0.41237-3.5059 1.3399-4.9492 2.7832 0-1.8557-0.30918-2.8856-0.92774-3.0918-0.61856-0.20618-1.3393-0.10378-2.1641 0.30859-0.61856 0.41237-1.3393 0.72155-2.1641 0.92773-0.82475 0.20619-1.445-0.2054-1.8574-1.2363 1.2371-1.4433 2.4758-2.3728 3.7129-2.7852 1.4433-0.41237 2.8868-0.61719 4.3301-0.61719 1.6495-0.20619 3.1954-0.41296 4.6387-0.61914 1.4433-0.41237 2.7824-1.4423 4.0195-3.0918 0.20626 2.0619 0.41303 3.0918 0.61914 3.0918 0.41237 0 0.82395-0.30918 1.2363-0.92774 0.61856-0.82474 1.3413-1.5455 2.166-2.1641 0.51547-0.51546 1.1106-0.7495 1.7871-0.70117zm-376.17 3.3105c1.4304 0.11598 2.2224 1.1014 2.377 2.957 0.41237 2.4742 0.1032 4.3293-0.92774 5.5664-0.61766-4.48e-4 -1.133-0.20722-1.5449-0.61914-0.41237-0.61856-0.82591-1.1326-1.2383-1.5449-0.20616-0.41237-0.51536-0.72155-0.92774-0.92774-0.41237-0.41237-1.1331-0.41237-2.1641 0-0.41245-1.6495-0.30996-2.579 0.3086-2.7852 0.61863-0.20618 1.0322 0.10494 1.2383 0.92969 0.61856 0 0.92773-0.31113 0.92773-0.92969 0-0.82474 0.10248-1.6479 0.3086-2.4727 0.61857-0.15464 1.1658-0.21249 1.6426-0.17383zm753.87 0c1.4305 0.11598 2.2224 1.1014 2.377 2.957 0.4124 2.4742 0.1032 4.3293-0.9277 5.5664-0.6186 0-1.1345-0.20677-1.5469-0.61914-0.4124-0.61856-0.824-1.1326-1.2363-1.5449-0.2062-0.41237-0.5154-0.72155-0.9278-0.92774-0.4124-0.41237-1.1351-0.41237-2.166 0-0.4124-1.6495-0.308-2.579 0.3106-2.7852 0.6186-0.20618 1.0302 0.10494 1.2363 0.92969 0.6185 0 0.9277-0.31113 0.9277-0.92969 0-0.82474 0.1025-1.6479 0.3086-2.4727 0.6186-0.15464 1.1677-0.21249 1.6445-0.17383zm-946.89 2.4453c0.53157 0.032217 0.86136 0.30485 0.99023 0.82031 0.41237 0.61856 0.72155 1.4437 0.92773 2.4746 0.82475 0.20619 1.2383-0.30976 1.2383-1.5469 1.0309-0.20618 1.4425 5.84e-4 1.2363 0.61914 0 0.41237-0.20677 1.0307-0.61914 1.8555-0.41237 0.61856-0.72154 1.2369-0.92773 1.8555 0 0.61856 0.62031 0.92774 1.8574 0.92774-0.61856 1.2371-1.3413 1.8555-2.166 1.8555-0.82474-0.20618-1.5455-0.72018-2.1641-1.5449-0.61856-0.82474-1.1345-1.8566-1.5469-3.0938-0.20619-1.4433-0.20619-2.7844 0-4.0215 0.46392-0.15464 0.85488-0.2205 1.1738-0.20117zm179.74 0.45312c0.59278-0.012886 1.1732 0.007047 1.7402 0.058594 2.2681 0 4.2255 1.3391 5.875 4.0195-2.4742 0.20619-5.1544 0.82454-8.041 1.8555-2.6804 1.0309-5.3606 1.9604-8.041 2.7852-2.6804 0.82474-5.2582 1.2363-7.7324 1.2363-2.4742 0-4.6385-0.92753-6.4941-2.7832-0.41237-1.4433-0.30996-2.3708 0.30859-2.7832 0.61856-0.61856 0.92773-1.4437 0.92773-2.4746 2.6804 1.2371 5.3625 1.5463 8.043 0.92773 2.6804-0.61856 5.2563-1.2369 7.7305-1.8555 2.0103-0.61856 3.9052-0.94767 5.6836-0.98633zm753.87 0c0.5928-0.012886 1.1732 0.007047 1.7402 0.058594 2.2681 0 4.2275 1.3391 5.877 4.0195-2.4742 0.20619-5.1544 0.82454-8.041 1.8555-2.6805 1.0309-5.3606 1.9604-8.0411 2.7852-2.6804 0.82474-5.2581 1.2363-7.7324 1.2363-2.4742 0-4.6404-0.92753-6.4961-2.7832-0.4124-1.4433-0.308-2.3708 0.3106-2.7832 0.6185-0.61856 0.9277-1.4437 0.9277-2.4746 2.6804 1.2371 5.3606 1.5463 8.041 0.92773 2.6804-0.61856 5.2582-1.2369 7.7325-1.8555 2.0103-0.61856 3.9032-0.94767 5.6816-0.98633zm-618.73 3.2871c1.4304 0.11598 2.2243 1.1014 2.3789 2.957 0.41237 2.4742 0.1032 4.3293-0.92774 5.5664h-0.00195c-1.6495 0-2.5771-0.82512-2.7832-2.4746-0.20611-1.6495-0.3086-3.607-0.3086-5.875 0.61858-0.15464 1.1658-0.21249 1.6426-0.17383zm753.87 0c1.4304 0.11598 2.2224 1.1014 2.377 2.957 0.4123 2.4742 0.1032 4.3293-0.9278 5.5664-1.6495 0-2.5771-0.82512-2.7832-2.4746-0.2061-1.6495-0.3105-3.607-0.3105-5.875 0.6186-0.15464 1.1677-0.21249 1.6445-0.17383zm-291.34 0.019531c0.51547 0 1.0314 0.051203 1.5469 0.1543 1.0309 0.20619 1.7517 0.61777 2.1641 1.2363 0 1.0309-0.30917 1.6493-0.92773 1.8555-0.61857 0.20619-1.4437 0.31055-2.4746 0.31055-0.82475-0.20619-1.7523-0.31055-2.7832-0.31055-0.82474 0-1.5455 0.10436-2.1641 0.31055 0-1.2371 0.3092-2.0622 0.92773-2.4746 0.61856-0.61856 1.3393-0.92773 2.1641-0.92773 0.51546-0.10309 1.0314-0.1543 1.5469-0.1543zm-639.38 1.5645c4.3299-0.11598 9.1251 0.7537 14.383 2.6094-2.0618 1.0309-4.4329 2.0628-7.1133 3.0938-2.6804 1.0309-5.5674 1.8561-8.6602 2.4746-3.0928 0.41237-6.2889 0.61719-9.5879 0.61719-3.0928 0-6.1865-0.51399-9.2793-1.5449 5.3608-3.7113 10.723-5.9799 16.084-6.8047 1.3402-0.25773 2.7305-0.40665 4.1738-0.44531zm753.87 0c4.3299-0.11598 9.1231 0.7537 14.381 2.6094-2.0619 1.0309-4.4329 2.0628-7.1133 3.0938-2.6804 1.0309-5.5674 1.8561-8.6602 2.4746-3.0928 0.41237-6.2889 0.61719-9.5879 0.61719-3.0927 0-6.1845-0.51399-9.2773-1.5449 5.3608-3.7113 10.721-5.9799 16.082-6.8047 1.3402-0.25773 2.7325-0.40665 4.1758-0.44531zm-131.81 0.13477c-0.41237 2.268-1.6491 3.8159-3.7109 4.6406-1.8556 0.61856-4.0199 1.0301-6.4941 1.2363-2.4742 0.20619-4.9496 0.30859-7.4238 0.30859-2.4742 1e-6 -4.536 0.51595-6.1855 1.5469 0.82474-1.8557 2.1658-3.0924 4.0215-3.7109 1.8557-0.82474 3.9175-1.4431 6.1856-1.8555 2.268-0.41237 4.5366-0.72155 6.8047-0.92773 2.4742-0.20619 4.7409-0.61973 6.8027-1.2383zm-455.82 0.31055c-0.82474 1.0309-1.2383 2.0609-1.2383 3.0918 0 0.82474 0.10444 1.7523 0.31055 2.7832 0.41245 0.82474 0.72162 1.7542 0.92773 2.7852 0.41238 1.0309 0.61914 2.1633 0.61914 3.4004-1.4433 0.41237-2.5776 1.1351-3.4023 2.166-0.61856 1.0309-1.8572 1.5469-3.7129 1.5469-1.0309-1.0309-1.5449-2.6812-1.5449-4.9492 0-2.268-0.51594-3.9183-1.5469-4.9492-2.268 0.20618-4.2275 0.61972-5.877 1.2383-1.4433 0.41237-2.7824 0.72155-4.0195 0.92773-1.2371 0.20618-2.4738 0.10378-3.7109-0.30859-1.0309-0.41237-2.372-1.4443-4.0215-3.0938 2.4742-1.0309 4.8452-1.6493 7.1133-1.8555 2.268-0.41237 4.4323-0.72155 6.4941-0.92774 2.0619-0.20619 4.2281-0.30859 6.4961-0.30859 2.2681-0.20619 4.6391-0.72213 7.1133-1.5469zm753.87 0c-0.8247 1.0309-1.2363 2.0609-1.2363 3.0918 0 0.82474 0.1025 1.7523 0.3086 2.7832 0.4124 0.82474 0.7216 1.7542 0.9277 2.7852 0.4124 1.0309 0.6192 2.1633 0.6192 3.4004-1.4433 0.41237-2.5776 1.1351-3.4024 2.166-0.6185 1.0309-1.8552 1.5469-3.7109 1.5469-1.0309-1.0309-1.5469-2.6812-1.5469-4.9492 0-2.268-0.5159-3.9183-1.5469-4.9492-2.268 0.20618-4.2255 0.61972-5.875 1.2383-1.4433 0.41237-2.7844 0.72155-4.0214 0.92773-1.2372 0.20618-2.4739 0.10378-3.711-0.30859-1.0309-0.41237-2.372-1.4443-4.0215-3.0938 2.4742-1.0309 4.8472-1.6493 7.1153-1.8555 2.268-0.41237 4.4322-0.72155 6.4941-0.92774 2.0618-0.20619 4.2261-0.30859 6.4941-0.30859 2.2681-0.20619 4.6391-0.72213 7.1133-1.5469zm-792.56 3.8457c0.8505-0.03866 1.5846 0.32837 2.2031 1.1016 1.0309 0.82474 1.3421 2.5774 0.92969 5.2578h-4.3301c-1.4433 0-2.8868 0.10436-4.3301 0.31055-0.20619-1.6495 0.2054-3.093 1.2363-4.3301 1.0309-1.2371 2.1652-1.9598 3.4023-2.166 0.30928-0.10309 0.60517-0.16094 0.88868-0.17383zm753.87 0c0.8505-0.03866 1.5845 0.32837 2.2031 1.1016 1.0309 0.82474 1.3401 2.5774 0.9277 5.2578h-4.3301c-1.4433 0-2.8868 0.10436-4.33 0.31055-0.2062-1.6495 0.2073-3.093 1.2382-4.3301 1.031-1.2371 2.1633-1.9598 3.4004-2.166 0.3093-0.10309 0.6072-0.16094 0.8907-0.17383zm-619.65 0.48438c-4.7423 1.8557-9.1751 3.2992-13.299 4.3301-3.9175 0.82474-8.7639 0.82474-14.537 0 3.0928-1.6495 7.0116-2.6814 11.754-3.0938 4.7422-0.61856 10.103-1.0301 16.082-1.2363zm-289.12 0.92773c-1.0309 1.0309-1.7517 2.4744-2.1641 4.3301-0.20619 1.8557-1.3405 2.7832-3.4024 2.7832v-6.8047h2.7832c0.82474 0 1.7523-0.10241 2.7832-0.30859zm753.87 0c-1.0309 1.0309-1.7536 2.4744-2.166 4.3301-0.2062 1.8557-1.3386 2.7832-3.4004 2.7832v-6.8047h2.7832c0.8248 0 1.7523-0.10241 2.7832-0.30859zm-619.33 2.1641c1.2371 0 2.5762 0.10436 4.0195 0.31055 1.4433 0.20618 2.682 0.10182 3.7129-0.31055-0.41237 2.268-2.0626 3.9183-4.9492 4.9492-2.6804 0.82474-4.949 0.4112-6.8047-1.2383-0.41234-1.6495-0.20558-2.6794 0.61914-3.0918 1.0309-0.41237 2.1652-0.61914 3.4024-0.61914zm753.87 0c1.2371 0 2.5782 0.10436 4.0214 0.31055 1.4434 0.20618 2.6801 0.10182 3.711-0.31055-0.4124 2.268-2.0626 3.9183-4.9492 4.9492-2.6804 0.82474-4.9471 0.4112-6.8028-1.2383-0.4123-1.6495-0.2075-2.6794 0.6172-3.0918 1.031-0.41237 2.1652-0.61914 3.4024-0.61914zm-769.2 1.0547c1.1276-0.032216 2.0139 0.33813 2.6582 1.1113-1.0309 1.4433-2.5788 2.5776-4.6406 3.4023-2.0619 0.82474-3.8145 0.4112-5.2578-1.2383 1.0309-1.0309 2.6812-1.9585 4.9492-2.7832 0.85051-0.30928 1.6145-0.47286 2.291-0.49219zm753.87 0c1.1275-0.032216 2.0138 0.33813 2.6582 1.1113-1.031 1.4433-2.5769 2.5776-4.6387 3.4023-2.0619 0.82474-3.8145 0.4112-5.2578-1.2383 1.0309-1.0309 2.6792-1.9585 4.9473-2.7832 0.8505-0.30928 1.6144-0.47286 2.291-0.49219zm-667.22 0.30859c1.1759-0.032217 2.1506 0.33813 2.9238 1.1113-1.0309 1.0309-2.6812 1.9585-4.9492 2.7832-2.268 0.82474-3.9163 0.51557-4.9473-0.92773 1.0309-1.0309 2.5768-1.8561 4.6387-2.4746 0.85051-0.30928 1.6284-0.47286 2.334-0.49219zm753.87 0c1.1759-0.032217 2.1487 0.33813 2.9219 1.1113-1.0309 1.0309-2.6792 1.9585-4.9472 2.7832-2.2681 0.82474-3.9184 0.51557-4.9493-0.92773 1.0309-1.0309 2.5768-1.8561 4.6387-2.4746 0.8505-0.30928 1.6304-0.47286 2.3359-0.49219zm-1070.3 0.64648c0.41237 0 0.82591 0.053157 1.2383 0.15625 0.82474 0 1.5455 0.20482 2.1641 0.61719 0.82474 0.41237 1.3407 0.72155 1.5469 0.92773 0.20619 0.82474-0.10299 1.2383-0.92773 1.2383-0.61856 0-1.2369 0.20677-1.8555 0.61914 0.61856 0.82474 1.3393 1.4431 2.1641 1.8555 0.82475 0.41237 1.1339 1.4423 0.92774 3.0918-1.4433 1.0309-2.4732 1.3401-3.0918 0.92774-0.61856-0.61856-1.1345-1.3393-1.5469-2.1641-0.20619-1.0309-0.51537-2.0628-0.92774-3.0938-0.20618-1.2371-0.82454-1.9579-1.8555-2.1641 0-1.0309 0.30918-1.6493 0.92774-1.8555 0.41237-0.10309 0.82395-0.15625 1.2363-0.15625zm-9.5879 0.46484c1.4433 0 2.166 0.30918 2.166 0.92773 0.20619 0.61856 0.20619 1.3413 0 2.166v1.5449c0.20619 0.41237 1.0313 0.51673 2.4746 0.31055 0.41237 2.6804-0.20598 4.3287-1.8555 4.9473-1.4433 0.41237-3.196 0.51673-5.2578 0.31055 1.0309-1.0309 1.4425-2.6812 1.2363-4.9492-0.20619-2.268 0.2054-4.0207 1.2363-5.2578zm23.197 0.92773c0 1.8557 0.51399 2.99 1.5449 3.4023 0 1.0309-0.30917 1.6493-0.92773 1.8555h-2.1641c-0.82475-0.20618-1.6499-0.51536-2.4746-0.92774-0.82475-0.41237-1.3407-0.72155-1.5469-0.92773 0.82474-1.8557 2.6818-2.99 5.5684-3.4023zm263.84 1.1406c0.25773 0.012887 0.51376 0.044157 0.77148 0.095703 1.0309 0 1.7536 0.31113 2.166 0.92969 0 2.268-1.0319 3.4004-3.0938 3.4004-1.8557 0-3.7107 0.10436-5.5664 0.31055 0-1.2371 0.30918-2.1646 0.92774-2.7832 0.82475-0.82474 1.6499-1.3407 2.4746-1.5469 0.7732-0.30928 1.5471-0.44491 2.3203-0.40625zm753.87 0c0.2577 0.012887 0.5157 0.044157 0.7734 0.095703 1.0309 0 1.7517 0.31113 2.1641 0.92969 0 2.268-1.03 3.4004-3.0918 3.4004-1.8557 0-3.7127 0.10436-5.5684 0.31055 0-1.2371 0.3092-2.1646 0.9278-2.7832 0.8247-0.82474 1.6498-1.3407 2.4746-1.5469 0.7732-0.30928 1.5471-0.44491 2.3203-0.40625zm-1045 1.5664c0.41237 1e-6 0.85053 0.024626 1.3144 0.076172 0.20619 2.0619-0.10299 3.6077-0.92773 4.6387-0.61856 0.82474-1.1345 2.0634-1.5469 3.7129-3.299-1.0309-5.5656-1.5469-6.8027-1.5469-1.2371 0-3.299 0.10241-6.1856 0.30859-0.41237-1.4433-0.30996-2.3708 0.30859-2.7832 0.61856-0.41237 0.92774-1.1331 0.92774-2.1641 1.6495 1.0309 2.9906 1.4425 4.0215 1.2363s1.9585-0.61777 2.7832-1.2363c1.0309-0.61856 2.0609-1.1345 3.0918-1.5469 0.7732-0.46392 1.7785-0.69531 3.0156-0.69531zm751.75 0.69531c1.0309 1.6495 2.6812 2.6794 4.9492 3.0918 2.2681 0.20618 4.8458 0.10378 7.7324-0.30859-0.82475 1.6495-1.2383 3.2997-1.2383 4.9492-2.0618-1.6495-3.8145-2.4746-5.2578-2.4746-1.2371-1e-6 -3.1946 0.41158-5.875 1.2363-0.20611-1.0309-0.31055-2.0609-0.31054-3.0918v-3.4023zm23.506 0.30859c0.51547 0 1.0314 0.10436 1.5469 0.31055 1.0309 0.20619 2.1652 0.61777 3.4023 1.2363 1.2371 0.41237 2.3714 0.10319 3.4024-0.92774v2.7832c0.20611 0.61856 0.30859 1.3413 0.30859 2.166-0.82475-0.20619-1.959-0.20619-3.4023 0l-3.7109 0.61719h-3.4023c-1.031-0.20619-1.6494-0.82454-1.8555-1.8555 0.61856-2.4742 1.3393-3.8133 2.1641-4.0195 0.51545-0.20619 1.0314-0.31055 1.5469-0.31055zm21.031 0.31055c0.4124 1.6495 0.31 2.8862-0.3086 3.7109-0.61857 0.61856-1.4437 1.0301-2.4746 1.2363-0.82472 0.20619-1.8566 0.20619-3.0938 0-1.0309-0.41237-1.856-0.92832-2.4746-1.5469 0-2.0619 0.92948-3.0918 2.7852-3.0918 1.8556-0.20619 3.7107-0.30859 5.5664-0.30859zm-193.92 0.30859c2.0619 1.6495 3.5053 2.3702 4.3301 2.1641 1.0309-0.41237 3.4019-0.72155 7.1133-0.92773-0.41238 2.0619-1.4423 3.5053-3.0918 4.3301-1.4433 0.82474-3.3003 1.3407-5.5684 1.5469-2.0619 0.20619-4.2261 0.20619-6.4941 0-2.268-0.20619-4.1231-0.30859-5.5664-0.30859 0.20619-1.4433 0.72018-2.2684 1.5449-2.4746 1.0309-0.20619 2.0628-0.30859 3.0938-0.30859 1.0309 0 1.9585-0.10436 2.7832-0.31055 1.031-0.41237 1.6494-1.6491 1.8555-3.7109zm-279.07 0.56055c1.701 0.038659 3.4025 0.36777 5.1035 0.98633 2.268 0.61856 3.9163 1.6485 4.9473 3.0918-1.4433 0.20619-2.9892 0.61973-4.6387 1.2383-1.6495 0.61856-3.4021 1.1326-5.2578 1.5449-1.6495 0.20618-3.2978 0.10378-4.9473-0.30859-1.4433-0.41237-2.7844-1.5467-4.0215-3.4023-0.61864-0.20618-1.0302-0.10182-1.2363 0.31055 0 0.41237-0.10443 0.82396-0.31054 1.2363 0-1.4433 0.82511-2.5776 2.4746-3.4023 1.8557-0.82474 3.9175-1.2363 6.1856-1.2363 0.56701-0.051547 1.1342-0.07148 1.7012-0.058594zm753.87 0c1.7011 0.038659 3.4025 0.36777 5.1036 0.98633 2.268 0.61856 3.9182 1.6485 4.9492 3.0918-1.4433 0.20619-2.9892 0.61973-4.6387 1.2383-1.6495 0.61856-3.4021 1.1326-5.2578 1.5449-1.6495 0.20618-3.2997 0.10378-4.9492-0.30859-1.4433-0.41237-2.7844-1.5467-4.0215-3.4023-0.6187-0.20618-1.0302-0.10182-1.2363 0.31055 0 0.41237-0.1025 0.82396-0.3086 1.2363 0-1.4433 0.8231-2.5776 2.4726-3.4023 1.8557-0.82474 3.9175-1.2363 6.1856-1.2363 0.567-0.051547 1.1341-0.07148 1.7011-0.058594zm-506.34 0.058594c-0.20624 1.6495-0.1018 2.577 0.31055 2.7832 0.61856 0 1.3393-0.10436 2.1641-0.31055 0.82475-0.41237 1.6499-0.72155 2.4746-0.92773 1.0309-0.20618 1.856 0.30976 2.4746 1.5469-1.2371 1.2371-3.2989 2.0622-6.1856 2.4746-2.6804 0.41237-4.4331 0.30996-5.2578-0.30859v-3.4023c1.2371-1.2371 2.5762-1.8555 4.0195-1.8555zm-260.67 1.5449v3.4023c0 1.0309 0.10248 2.1652 0.3086 3.4023-2.8866-0.61856-5.4624-0.41179-7.7305 0.61914-2.2681 1.0309-4.0207 0.92657-5.2578-0.31055 0.61854-2.8866 2.1644-4.6373 4.6387-5.2559 2.6804-0.61856 5.3606-1.2389 8.041-1.8574zm753.87 0v3.4023c0 1.0309 0.1024 2.1652 0.3086 3.4023-2.8867-0.61856-5.4644-0.41179-7.7325 0.61914-2.268 1.0309-4.0207 0.92657-5.2578-0.31055 0.6186-2.8866 2.1645-4.6373 4.6387-5.2559 2.6804-0.61856 5.3625-1.2389 8.043-1.8574zm-672.27 4.3301c1.6495 0.82474 2.6814 2.9909 3.0937 6.4961-1.4433 0.61856-2.5776 0.82337-3.4023 0.61719-0.61856-0.41237-1.1345-0.82396-1.5469-1.2363-0.41238-0.61856-0.92637-1.1345-1.5449-1.5469-0.41237-0.61856-1.1351-0.92773-2.166-0.92773 0.20619-1.0309 0.72213-1.4425 1.5469-1.2363 0.82475 0 1.2363 0.41158 1.2363 1.2363 0.61856-0.41237 1.1345-0.82396 1.5469-1.2363 0.61863-0.41237 1.0302-1.1351 1.2363-2.166zm-361.06 0.61914h2.7832c0.20618 1.2371 0.10182 2.1646-0.31055 2.7832-0.20619 0.41237-0.51536 0.92832-0.92773 1.5469-0.41237 0.41237-0.82396 0.92832-1.2363 1.5469-0.41237 0.41237-0.41237 1.2355 0 2.4727-1.0309-0.61856-1.7536-1.7509-2.166-3.4004-0.20618-1.6495-0.51536-3.1973-0.92773-4.6406 1.0309-0.20619 1.9604-0.30859 2.7852-0.30859zm99.461 0c1.2371 3.299 3.6081 4.9492 7.1133 4.9492 3.5052-0.20618 7.3196-0.72213 11.443-1.5469 4.3299-1.0309 8.556-1.6493 12.68-1.8555 4.1237-0.41237 7.3198 0.82434 9.5879 3.7109-12.99 0.61856-24.433 1.2369-34.33 1.8555-9.6907 0.41237-18.866 1.7534-27.525 4.0215 0.61856-2.8866 1.7529-4.7436 3.4024-5.5684 1.6495-1.0309 3.4021-1.6493 5.2578-1.8555 2.0618-0.41237 4.1237-0.72155 6.1855-0.92773 2.268-0.20619 4.3299-1.1337 6.1856-2.7832zm753.87 0c1.2371 3.299 3.6101 4.9492 7.1152 4.9492 3.5052-0.20618 7.3197-0.72213 11.443-1.5469 4.3299-1.0309 8.556-1.6493 12.68-1.8555 4.1237-0.41237 7.3198 0.82434 9.5879 3.7109-12.99 0.61856-24.433 1.2369-34.33 1.8555-9.6907 0.41237-18.866 1.7534-27.525 4.0215 0.6186-2.8866 1.7529-4.7436 3.4024-5.5684 1.6494-1.0309 3.4001-1.6493 5.2558-1.8555 2.0619-0.41237 4.1237-0.72155 6.1856-0.92773 2.268-0.20619 4.3298-1.1337 6.1855-2.7832zm-870.65 0.61914c1.2371 0 2.0622 0.61836 2.4746 1.8555 0.61856 1.0309 1.0301 2.1652 1.2363 3.4023 0.41237 1.2371 0.82591 2.3714 1.2383 3.4023 0.41237 1.0309 1.3399 1.5449 2.7832 1.5449-0.41236 1.6495-1.1351 2.3722-2.166 2.166-1.0309-0.20618-2.0609-0.82454-3.0918-1.8555-0.82474-1.2371-1.5475-2.785-2.166-4.6406-0.61856-1.8557-0.72097-3.8131-0.3086-5.875zm-14.537 0.61719c3.0928-0.20618 4.6406 1.4441 4.6406 4.9492-0.82474 1.0309-1.5475 1.5469-2.166 1.5469-0.61855 0-1.2369-0.10436-1.8555-0.31055-0.61855-0.41237-1.3393-0.72155-2.1641-0.92774-0.61856-0.20619-1.4437-0.20619-2.4746 0-0.20618-2.268-0.10378-3.1956 0.3086-2.7832 0.61855 0.41237 1.4437 0.72155 2.4746 0.92773 0.61856 0 0.92774-0.41158 0.92774-1.2363 0-0.82474 0.10241-1.5475 0.30859-2.166zm9.2598 1.1895c0.63144-0.045102 0.94726 0.3831 0.94726 1.2852 0.20619 1.0309 0.3086 2.0628 0.3086 3.0938 0 1.0309 0.10436 1.8561 0.31054 2.4746 0.41238 0.61856 1.3399 0.5142 2.7832-0.31055 0 1.0309-0.41354 1.7536-1.2383 2.166-0.61856 0.20619-1.3393 0.30859-2.1641 0.30859-0.82474-0.20619-1.6499-0.51536-2.4746-0.92773-0.82474-0.41237-1.3407-0.82396-1.5469-1.2363-0.20618-1.4433 0.30976-2.3728 1.5469-2.7852 1.4433-0.41237 1.8568-1.7515 1.2383-4.0195 0.10309-0.025773 0.19885-0.042385 0.28906-0.048828zm561.18 7.625c0.51546 0 1.0295 0.053156 1.5449 0.15625 1.0309 0.20618 1.7536 0.61777 2.166 1.2363 0 1.0309-0.30918 1.6493-0.92774 1.8555s-1.4437 0.30859-2.4746 0.30859c-0.82474-0.20619-1.7523-0.30859-2.7832-0.30859-0.82475 0-1.5475 0.10241-2.166 0.30859 0-1.2371 0.30918-2.0603 0.92774-2.4727 0.61856-0.61856 1.3413-0.92773 2.166-0.92773 0.51547-0.10309 1.0314-0.15625 1.5469-0.15625zm204.12 0.46484c1.0309 0.82474 1.9584 1.8547 2.7832 3.0918 1.0309 1.2371 1.5469 2.9898 1.5469 5.2578-1.6495 0.82474-2.9906 1.7542-4.0215 2.7852-1.0309 1.0309-2.37 0.72175-4.0195-0.92773-0.20619-1.4433-0.00137-2.3728 0.61719-2.7852 0.61856-0.61856 1.2369-1.1326 1.8555-1.5449s1.1345-1.0307 1.5469-1.8555c0.41242-0.82474 0.30994-2.1658-0.30859-4.0215zm17.01 0.92773c-0.20626 1.6495-0.10183 2.577 0.31055 2.7832 0.61856 0 1.3393-0.10241 2.1641-0.30859 0.82475-0.41237 1.6499-0.72155 2.4746-0.92773 1.031-0.20618 1.856 0.30976 2.4746 1.5469-1.2372 1.6495-2.4758 2.7818-3.7129 3.4004-1.0309 0.61856-2.0609 0.92773-3.0918 0.92773-1.0309-0.20619-1.9584-0.51536-2.7832-0.92773-0.82475-0.41237-1.4431-0.82396-1.8555-1.2363v-3.4023c1.2371-1.2371 2.5762-1.8555 4.0195-1.8555zm-391.26 9.2305c1.3531-0.045104 2.3897 0.38309 3.1113 1.2852 1.0309 0.82474 2.6812 0.82474 4.9492 0-2.6804 3.299-4.4331 5.154-5.2578 5.5664-0.61856 0.41237-1.7528-1.8543-3.4024-6.8027 0.20619-0.025773 0.40631-0.042385 0.59961-0.048828zm-278.28 1.5938c0.82474 0.41237 1.8547 0.61914 3.0918 0.61914 1.2371 0 2.3714 0.10241 3.4024 0.30859 1.0309 0.20618 1.856 0.61972 2.4746 1.2383 0.82474 0.41237 1.2363 1.2375 1.2363 2.4746-1.4433-1.6495-3.0916-2.063-4.9473-1.2383-1.6495 0.82474-3.2997 1.4431-4.9492 1.8555-0.20618-1.0309-0.30859-1.8561-0.30859-2.4746v-2.7832zm753.87 0c0.8247 0.41237 1.8546 0.61914 3.0918 0.61914 1.2371 0 2.3714 0.10241 3.4023 0.30859 1.0309 0.20618 1.8561 0.61972 2.4746 1.2383 0.8248 0.41237 1.2383 1.2375 1.2383 2.4746h-2e-3c-1.4433-1.6495-3.0915-2.063-4.9472-1.2383-1.6495 0.82474-3.2997 1.4431-4.9492 1.8555-0.2062-1.0309-0.3086-1.8561-0.3086-2.4746v-2.7832zm-307.17 3.6543c0.25773-0.012887 0.51375 0.005094 0.77148 0.05664v4.9492c-2.268-0.61856-3.6072-0.20697-4.0195 1.2363-0.41237 1.2371-0.92831 2.4758-1.5469 3.7129-0.82474-0.61856-1.2363-1.4437-1.2363-2.4746 0.20618-1.2371 0.61776-2.4738 1.2363-3.7109 0.61857-1.2371 1.4437-2.1646 2.4746-2.7832 0.77321-0.61856 1.5471-0.94767 2.3203-0.98633zm233.35 4.0781c-1.4433 3.5052-3.196 5.567-5.2579 6.1855-2.0618 0.61856-4.3304 0.82532-6.8046 0.61914-2.4742-0.41237-5.1544-0.92832-8.041-1.5469-2.6804-0.61856-5.463-0.41179-8.3496 0.61914 1.8557-2.0619 3.9175-3.1962 6.1856-3.4023 2.268-0.20619 4.639-0.20619 7.1133 0 2.6804 0.20619 5.2582 0.30859 7.7324 0.30859 2.6804-0.20618 5.1538-1.1337 7.4219-2.7832zm-407.86 1.2363c0.25773 0 0.54228 0.10436 0.85156 0.31055 0.82475 0.41237 1.7523 1.0307 2.7832 1.8555 1.0309 0.61856 2.1652 0.72096 3.4024 0.30859 0 1.6495-1.1343 2.2678-3.4024 1.8555-2.268-0.41237-4.0207-0.41237-5.2578 0 0.20619-2.268 0.51539-3.6072 0.92774-4.0195 0.20618-0.20619 0.43757-0.31055 0.69531-0.31055zm-377.26 5.8008c1.7784 0 3.4399 0.2314 4.9863 0.69531 2.0618 0.61856 3.5053 2.1644 4.3301 4.6387-1.8557-1.2371-3.6083-1.8555-5.2578-1.8555-1.6495 0-3.4021 0.20677-5.2578 0.61914-1.6495 0.20618-3.5046 0.30859-5.5664 0.30859-2.0618 0-4.4329-0.61836-7.1133-1.8555 1.2371-0.20618 2.9898-0.61972 5.2578-1.2383 2.268-0.61856 4.5366-1.0301 6.8047-1.2363 0.61856-0.05154 1.2236-0.07617 1.8164-0.07617zm579.67 0.03711c0.9826 0 2.2485 0.32247 3.7949 0.9668 0.41245 1.2371 0.30801 2.1646-0.31055 2.7832-0.41237 0.41237-1.1331 0.61914-2.1641 0.61914h-2.7832c-1.0309-0.20619-1.856-0.20619-2.4746 0 0.82474-2.268 1.6499-3.6091 2.4746-4.0215 0.38659-0.23196 0.87333-0.34766 1.4629-0.34766zm-12.83 2.5137c2.4227 0 4.8715 0.10241 7.3457 0.30859-2.268 1.4433-4.6391 2.3708-7.1133 2.7832-2.4742 0.41237-5.052 0.61914-7.7324 0.61914-2.4742 0-5.052-0.10241-7.7324-0.30859-2.4742-0.41238-4.8452-0.51674-7.1133-0.31055 5.567-1.6495 10.62-2.577 15.156-2.7832 2.3711-0.20618 4.7668-0.30859 7.1894-0.30859zm207.14 0.61914c-0.41245 1.2371-0.72162 2.2671-0.92773 3.0918s-0.3086 1.7523-0.3086 2.7832h4.3301c-0.41235 2.0619-1.1331 3.1962-2.1641 3.4024-0.82475 0-1.8566-0.41159-3.0938-1.2363-1.0309-1.0309-2.0609-2.2676-3.0918-3.7109-1.031-1.4433-1.6513-2.682-1.8574-3.7129h3.4023c1.2371 0 2.4738-0.20482 3.7109-0.61719zm-402.68 3.7109c1.2372 0 1.9599 0.51595 2.166 1.5469 0.41222 0.82475 0.5147 1.8547 0.30859 3.0918-0.20618 1.0309-0.51536 2.2676-0.92773 3.7109-0.41245 1.2371-0.72163 2.269-0.92774 3.0938-1.031-0.61856-1.6494-1.3413-1.8555-2.166-1e-5 -1.0309 0.10248-2.0609 0.30859-3.0918 0.41245-1.0309 0.72162-2.0628 0.92773-3.0938 0.41238-1.0309 0.41238-2.0609 0-3.0918zm197.37 1.6719c1.2564-0.03221 2.2717 0.33814 3.0449 1.1113-1.4433 1.0309-3.4008 1.9585-5.875 2.7832-2.4742 0.61855-4.3313 0.30937-5.5684-0.92774 1.4433-1.0309 3.4027-1.856 5.877-2.4746 0.92783-0.30928 1.7676-0.47286 2.5215-0.49219zm-153.14 0.1836c0.61863 1.2371 0.51615 2.3714-0.3086 3.4023-0.82475 0.82474-1.7523 1.4431-2.7832 1.8555-1.0309 0.20618-2.0628 0.10378-3.0938-0.30859-0.82467-0.41237-1.1338-1.4443-0.92774-3.0938 1.0309-0.41237 1.7536-0.2056 2.166 0.61914 0.41237 0.61856 1.1331 0.92773 2.1641 0.92773-0.41237-2.268 0.51518-3.4023 2.7832-3.4023zm-131.24 3.3574c0.05477 0.00322 0.10861 0.01915 0.16016 0.04492 0.61856 0.20619 1.2369 0.72213 1.8555 1.5469 0.61856 0.61855 1.3393 1.2369 2.1641 1.8555 0.82475 0.41237 1.8566 0.30801 3.0938-0.31055-0.82475 1.2371-1.4431 2.785-1.8555 4.6406-0.20619 1.8557-1.4429 2.5764-3.7109 2.1641 0.20626-2.0619 0.10183-3.9169-0.31054-5.5664-0.20619-1.6495-1.1337-2.577-2.7832-2.7832 0.54124-1.0825 1.0033-1.6144 1.3867-1.5918zm753.87 0c0.0548 0.00322 0.1067 0.01915 0.1582 0.04492 0.6186 0.20619 1.2369 0.72213 1.8555 1.5469 0.6186 0.61855 1.3413 1.2369 2.166 1.8555 0.8247 0.41237 1.8547 0.30801 3.0918-0.31055-0.8247 1.2371-1.4431 2.785-1.8555 4.6406-0.2062 1.8557-1.4429 2.5764-3.7109 2.1641 0.2063-2.0619 0.1038-3.9169-0.3086-5.5664-0.2062-1.6495-1.1337-2.577-2.7832-2.7832 0.5412-1.0825 1.0033-1.6144 1.3867-1.5918zm-724.95 3.1367c0.82474 0 1.7542 0.10436 2.7852 0.31055 1.2371 0.20618 2.3695 0.51536 3.4004 0.92773l2.7852 0.92773c-0.61856 1.2371-1.4437 1.9579-2.4746 2.1641-0.82472 0-1.7523-0.10241-2.7832-0.3086-1.0309-0.41237-2.0628-0.92831-3.0938-1.5469-0.82475-0.61856-1.4431-1.1345-1.8555-1.5469 0-0.61855 0.4116-0.92773 1.2363-0.92773zm753.87 0c0.8247 0 1.7523 0.10436 2.7832 0.31055 1.2371 0.20618 2.3714 0.51536 3.4023 0.92773 1.2371 0.41237 2.1647 0.72155 2.7832 0.92773-0.6185 1.2371-1.4437 1.9579-2.4746 2.1641-0.8247 0-1.7522-0.10241-2.7832-0.3086-1.0309-0.41237-2.0608-0.92831-3.0918-1.5469-0.8247-0.61856-1.445-1.1345-1.8574-1.5469 0-0.61855 0.4135-0.92773 1.2383-0.92773zm-1044.5 2.4746c1.0309 0 2.0628 0.10241 3.0938 0.30859 1.2371 0.20619 2.2671 0.10378 3.0918-0.30859 0 2.268-0.92753 3.5048-2.7832 3.7109h-6.1856c-0.41237-1.4433-0.30996-2.3708 0.30859-2.7832 0.61856-0.61856 1.4437-0.92773 2.4746-0.92773zm553.43 0c1.2371 1.2371 1.8555 3.4014 1.8555 6.4941-3.5052-0.41237-6.1853-0.51478-8.041-0.30859-1.6495 0-4.2273 0.30917-7.7324 0.92773 0.20619-2.268 0.82454-3.6072 1.8555-4.0195 1.2371-0.61856 2.4758-0.82533 3.7129-0.61914h4.3301c1.4433-0.20619 2.7824-1.0313 4.0195-2.4746zm-191.13 0.30859c4.1237 0.61856 8.5566 1.0321 13.299 1.2383 4.7423 0 10.103-0.20677 16.082-0.61914 0 0.41237-1.4435 1.1351-4.3301 2.166-2.8866 0.82474-6.0827 1.5455-9.5879 2.1641-3.5052 0.41237-6.8037 0.30996-9.8965-0.30859-3.0928-0.61856-4.9478-2.1664-5.5664-4.6406zm207.83 0.61914 4.9492 1.2383c1.8557 0.41237 4.0199 0.41237 6.4941 0-1.0309 0.61856-2.1652 1.3393-3.4023 2.1641-1.0309 0.61855-2.1652 1.0301-3.4024 1.2363-1.0309 0-2.0609-0.30917-3.0918-0.92773-0.82483-0.61856-1.3408-1.8553-1.5469-3.7109zm-282.01 2.4746c0.82482 0.41237 1.3388 1.1331 1.5449 2.1641 0.41235 1.0309 1.3418 1.3401 2.7852 0.92774-0.82475 1.4433-1.2383 3.7119-1.2383 6.8047h-4.0195c0.61856 2.268 1.1325 4.639 1.5449 7.1133 0.41222 2.4742 0.51666 5.2588 0.31054 8.3516-0.61856-0.61856-1.4437-1.0321-2.4746-1.2383-1.031-0.41237-1.6494 0.00117-1.8555 1.2383-1.031-0.20618-1.6494-0.72213-1.8555-1.5469 0-1.0309-0.51594-1.5469-1.5469-1.5469-0.61848-0.61856-0.72096-0.92773-0.30859-0.92773 0.41237-0.20619 1.0307-0.3086 1.8555-0.3086 1.0309 0 1.9584-0.10436 2.7832-0.31054 0.82475-0.20619 1.4431-0.92695 1.8555-2.1641-0.61856-1.8557-1.4437-3.6083-2.4746-5.2578-0.82475-1.6495-1.2363-3.8137-1.2363-6.4941 3.5052 0.41237 5.3603-0.00117 5.5664-1.2383 0.20618-1.4433-0.2054-3.2984-1.2363-5.5664zm753.87 0c0.8248 0.41237 1.3407 1.1331 1.5469 2.1641 0.4123 1.0309 1.3399 1.3401 2.7832 0.92774-0.8248 1.4433-1.2364 3.7119-1.2364 6.8047h-4.0215c0.6186 2.268 1.1346 4.639 1.5469 7.1133 0.4122 2.4742 0.5147 5.2588 0.3086 8.3516-0.6185-0.61856-1.4437-1.0321-2.4746-1.2383-1.031-0.41237-1.6493 0.00117-1.8555 1.2383-1.031-0.20618-1.6493-0.72213-1.8554-1.5469 0-1.0309-0.516-1.5469-1.5469-1.5469-0.6185-0.61856-0.721-0.92773-0.3086-0.92773 0.4124-0.20619 1.0307-0.3086 1.8555-0.3086 1.0309 0 1.9585-0.10436 2.7832-0.31054 0.8247-0.20619 1.4431-0.92695 1.8554-2.1641-0.6185-1.8557-1.4417-3.6083-2.4726-5.2578-0.8247-1.6495-1.2383-3.8137-1.2383-6.4941 3.5052 0.41237 5.3623-0.00117 5.5684-1.2383 0.2062-1.4433-0.2074-3.2984-1.2383-5.5664zm-273.3 2.1641c-4.7423 1.8557-9.1751 3.2992-13.299 4.3301-3.9175 0.82474-8.762 0.82474-14.535 0 3.0928-1.6495 7.0097-2.6794 11.752-3.0918 4.7422-0.61856 10.103-1.0321 16.082-1.2383zm-404.54 0.61915c-0.41238 1.0309-0.61914 2.1652-0.61914 3.4023 0 0.33568-0.01847 0.66192-0.04883 0.98242 0.14648 0.27292 0.26848 0.56177 0.35742 0.87305 0.61856 1.4433 1.1345 3.0935 1.5469 4.9492-1.8136 0.32973-3.0233-0.01145-3.6504-1-0.02157 0.02262-0.03844 0.05016-0.06054 0.07226-0.61856 0.61856-1.5461 0.92774-2.7832 0.92774 0.61862-0.61856 1.0302-1.548 1.2363-2.7852s0.3086-2.3695 0.3086-3.4004c0.08721-0.52327 0.19816-0.97997 0.32226-1.3926-2e-3 -0.15592-0.01172-0.30497-0.01172-0.46289 0.04986 0.0187 0.09386 0.0411 0.14258 0.06055 0.13999-0.38427 0.29784-0.72216 0.47656-0.99024 0.61856-0.82474 1.5461-1.2363 2.7832-1.2363zm-3.2598 2.2266c-0.04639 0.12734-0.08872 0.26223-0.13086 0.40234 0.02672 2.0834 0.22376 3.9962 0.60742 5.7227 0.08264 0.33054 0.21199 0.60772 0.36914 0.85547 0.58226-0.61067 0.97697-1.4082 1.1758-2.4024 0.30047-0.75119 0.48877-1.5593 0.57031-2.4199-0.51218-0.95426-1.3761-1.673-2.5918-2.1582zm-110.5-1.918c1.8556 1.0309 2.99 1.7536 3.4023 2.166 0.41238 0.41238 1.7515 0.1032 4.0195-0.92773 0.41238 2.268-0.10161 3.6072-1.5449 4.0195-1.2371 0.41237-2.6806 0.82591-4.3301 1.2383-1.0309-1.4433-1.5469-3.6095-1.5469-6.4961zm753.87 0c1.8556 1.0309 2.9899 1.7536 3.4023 2.166 0.4124 0.41238 1.7534 0.1032 4.0215-0.92773 0.4124 2.268-0.1036 3.6072-1.5469 4.0195-1.2371 0.41237-2.6806 0.82591-4.3301 1.2383-1.0309-1.4433-1.5468-3.6095-1.5468-6.4961zm-738.68 2.75c0.28672-0.00322 0.58525 0.00938 0.89453 0.03515 0.20619 0.61856-5.8e-4 1.1326-0.61914 1.5449-0.41235 0.41237-0.82396 0.92832-1.2363 1.5469-0.41245 0.41237-0.72162 0.82396-0.92773 1.2363 0 0.20618 0.51594 0.41295 1.5469 0.61914-0.61856 1.4433-1.6504 2.4752-3.0938 3.0938-1.4433 0.61856-2.7824 0.20502-4.0195-1.2383 1.2371-1.4433 2.267-2.9892 3.0918-4.6387 0.90206-1.4433 2.3562-2.1767 4.3633-2.1992zm753.87 0c0.2867-0.00322 0.5853 0.00938 0.8945 0.03515 0.2062 0.61856-6e-4 1.1326-0.6191 1.5449-0.4124 0.41237-0.8259 0.92832-1.2383 1.5469-0.4124 0.41237-0.7216 0.82396-0.9277 1.2363 0 0.20618 0.5159 0.41295 1.5469 0.61914-0.6186 1.4433-1.6485 2.4752-3.0918 3.0938-1.4433 0.61856-2.7844 0.20502-4.0215-1.2383 1.2371-1.4433 2.269-2.9892 3.0937-4.6387 0.9021-1.4433 2.3562-2.1767 4.3633-2.1992zm-787.98 0.5957c0.81186 0.03866 1.4501 0.36582 1.9141 0.98438 0.61856 0.61855 1.6485 0.72291 3.0918 0.31054-0.20619 1.0309-0.82454 1.5449-1.8555 1.5449-0.82472 0-1.6499 0.10436-2.4746 0.31054-2.268 0.61856-3.0932 2.9896-2.4746 7.1133-0.82475 0.20619-1.6479 0.10378-2.4726-0.30859-0.82475-0.41237-1.5475-0.7235-2.166-0.92969-0.61856-0.41237-1.1345-0.41237-1.5469 0-0.20611 0.20619-0.20611 1.2381 0 3.0938-1.0309-0.20618-1.5449-1.0313-1.5449-2.4746 0.20611-1.6495 0.20611-3.093 0-4.3301-0.20618-1.0309-0.82453-1.4425-1.8555-1.2363-0.82474 0-1.6499-0.10436-2.4746-0.31055 0.41238-1.4433 1.4423-2.1641 3.0918-2.1641 1.6495 0 3.1973 0.20677 4.6406 0.61914 1.6495 0.20618 2.9886 0.30859 4.0195 0.30859 1.2371 0 1.6487-0.82512 1.2363-2.4746 0.30928-0.05154 0.60047-0.06952 0.87109-0.05664zm753.87 0c0.8119 0.03866 1.4502 0.36582 1.9141 0.98438 0.6186 0.61855 1.6505 0.72291 3.0937 0.31054-0.2061 1.0309-0.8265 1.5449-1.8574 1.5449-0.8247 0-1.6479 0.10436-2.4726 0.31054-2.2681 0.61856-3.0932 2.9896-2.4746 7.1133-0.8248 0.20619-1.6499 0.10378-2.4747-0.30859-0.8247-0.41237-1.5455-0.7235-2.164-0.92969-0.6186-0.41237-1.1345-0.41237-1.5469 0-0.2061 0.20619-0.2061 1.2381 0 3.0938-1.0309-0.20618-1.5469-1.0313-1.5469-2.4746 0.2061-1.6495 0.2061-3.093 0-4.3301-0.2061-1.0309-0.8245-1.4425-1.8554-1.2363-0.8248 0-1.6499-0.10436-2.4746-0.31055 0.4123-1.4433 1.4442-2.1641 3.0937-2.1641s3.1954 0.20677 4.6387 0.61914c1.6495 0.20618 2.9886 0.30859 4.0195 0.30859 1.2371 0 1.6507-0.82512 1.2383-2.4746 0.3093-0.05154 0.5985-0.06952 0.8691-0.05664zm-801.29 0.67969c1.7558 0.04832 3.1488 0.45923 4.1797 1.2324 1.8557 1.2371 3.6084 2.4758 5.2578 3.7129-0.20618 1.8557-0.82453 2.6788-1.8555 2.4727-1.0309-0.20619-2.0609-0.51537-3.0918-0.92774s-1.9585-0.61718-2.7832-0.61718c-0.61846 0-0.82526 1.0299-0.61914 3.0918-1.0309 0.20619-1.856-5.8e-4 -2.4746-0.61914-0.41245-0.61856-0.72163-1.3393-0.92774-2.1641-0.20626-1.0309-0.41303-2.0628-0.61914-3.0938 0-1.0309-0.20481-1.9585-0.61719-2.7832 1.3144-0.23196 2.4973-0.33369 3.5508-0.30469zm753.87 0c1.7558 0.04832 3.1488 0.45923 4.1797 1.2324 1.8557 1.2371 3.6083 2.4758 5.2578 3.7129-0.2062 1.8557-0.8245 2.6788-1.8555 2.4727-1.0309-0.20619-2.0628-0.51537-3.0937-0.92774s-1.9585-0.61718-2.7832-0.61718c-0.6185 0-0.8253 1.0299-0.6191 3.0918-1.031 0.20619-1.8541-5.8e-4 -2.4727-0.61914-0.4125-0.61856-0.7236-1.3393-0.9297-2.1641-0.2063-1.0309-0.4111-2.0628-0.6172-3.0938 0-1.0309-0.2067-1.9585-0.6191-2.7832 1.3144-0.23196 2.4992-0.33369 3.5527-0.30469zm-859.17 8.0371c0.82474 0.41237 1.3407 1.2375 1.5469 2.4746 0.20619 1.0309 0.41296 2.0609 0.61914 3.0918 0.41237 1.0309 0.92832 1.856 1.5469 2.4746 0.82474 0.61856 2.0614 0.61856 3.7109 0-0.41238 1.8557-0.92832 2.8876-1.5469 3.0938-0.61855 0-1.3393-0.30917-2.1641-0.92773-0.61856-0.61856-1.4437-1.3413-2.4746-2.166-0.82474-0.82474-1.6499-1.2363-2.4746-1.2363-0.41237-1.6495-0.41237-2.8862 0-3.7109s0.82396-1.8566 1.2363-3.0938zm753.87 0c0.8248 0.41237 1.3408 1.2375 1.5469 2.4746 0.2063 1.0309 0.4111 2.0609 0.6172 3.0918 0.4123 1.0309 0.9283 1.856 1.5469 2.4746 0.8247 0.61856 2.0614 0.61856 3.7109 0-0.4124 1.8557-0.9283 2.8876-1.5469 3.0938-0.6185 0-1.3393-0.30917-2.164-0.92773-0.6186-0.61856-1.4437-1.3413-2.4746-2.166-0.8248-0.82474-1.6499-1.2363-2.4747-1.2363-0.4123-1.6495-0.4123-2.8862 0-3.7109 0.4124-0.82474 0.826-1.8566 1.2383-3.0938zm-466.6 1.2383c-0.41235 2.268-1.6491 3.8139-3.7109 4.6387-1.8557 0.61856-4.0218 1.0301-6.4961 1.2363-2.4742 0.20619-4.9476 0.31055-7.4219 0.31055-2.4742 0-4.536 0.51399-6.1856 1.5449 0.82475-1.8557 2.1638-3.0924 4.0195-3.7109 1.8557-0.82474 3.9175-1.4431 6.1856-1.8555 2.268-0.41237 4.5366-0.72155 6.8047-0.92773 2.4742-0.20619 4.7428-0.61777 6.8047-1.2363zm381.03 3.0918c1.6495 0.82474 2.6794 2.989 3.0918 6.4941-1.4433 0.61856-2.5776 0.82532-3.4023 0.61914-0.61856-0.41237-1.1326-0.82396-1.5449-1.2363-0.41238-0.61856-0.92832-1.1345-1.5469-1.5469-0.41237-0.61855-1.1351-0.92773-2.166-0.92773 0.20618-1.0309 0.72215-1.4445 1.5469-1.2383 0.82475 0 1.2363 0.41354 1.2363 1.2383 0.61856-0.41237 1.1345-0.82591 1.5469-1.2383 0.61864-0.41237 1.0322-1.1331 1.2383-2.1641zm-445.31 0.30859c-1.4433 1.8557-2.4732 3.4035-3.0918 4.6406l-1.8574 3.0918c-0.61853 0.82474-1.4417 1.7523-2.4726 2.7832-1.0309 0.82474-2.6812 1.8566-4.9492 3.0938 1.0309-3.5052 2.372-6.4945 4.0215-8.9688 1.6495-2.6804 4.4321-4.2283 8.3496-4.6406zm753.87 0c-1.4433 1.8557-2.4752 3.4035-3.0938 4.6406-0.6186 1.0309-1.2369 2.0609-1.8555 3.0918-0.6185 0.82474-1.4436 1.7523-2.4746 2.7832-1.0309 0.82474-2.6812 1.8566-4.9492 3.0938 1.0309-3.5052 2.372-6.4945 4.0215-8.9688 1.6495-2.6804 4.434-4.2283 8.3516-4.6406zm-982.42 0.61914c-0.41237 1.0309-0.92832 1.856-1.5469 2.4746-0.61856 0.61856-1.0302 1.5461-1.2363 2.7832-0.82474 0.20619-1.5475 0.20619-2.166 0-0.41237-0.41236-0.82395-0.72154-1.2363-0.92773-0.41237-0.41237-0.92831-0.72155-1.5469-0.92774-0.61856-0.20618-1.4437-0.10377-2.4746 0.3086 0.82474-1.2371 1.5475-1.9579 2.166-2.1641 0.82474-0.41237 1.6499-0.61914 2.4746-0.61914h2.4746c1.0309 0 2.0609-0.30918 3.0918-0.92774zm753.87 0c-0.4124 1.0309-0.9264 1.856-1.545 2.4746s-1.0321 1.5461-1.2382 2.7832c-0.8248 0.20619-1.5456 0.20619-2.1641 0-0.4124-0.41236-0.8259-0.72154-1.2383-0.92773-0.4124-0.41237-0.9263-0.72155-1.5449-0.92774-0.6186-0.20618-1.4437-0.10377-2.4746 0.3086 0.8247-1.2371 1.5455-1.9579 2.1641-2.1641 0.8247-0.41237 1.6498-0.61914 2.4746-0.61914h2.4746c1.0309 0 2.0608-0.30918 3.0918-0.92774zm-598.61 1.2363c6.598 2.8866 9.6917 4.4344 9.2793 4.6406-0.41237 0.20619-3.5061 0.41101-9.2793 0.61719-1.2371-0.41237-1.5463-0.92636-0.92773-1.5449 0.82465-0.82474 1.1338-2.0634 0.92773-3.7129zm753.87 0c6.5979 2.8866 9.6916 4.4344 9.2793 4.6406-0.4124 0.20619-3.5061 0.41101-9.2793 0.61719-1.2371-0.41237-1.5463-0.92636-0.9278-1.5449 0.8247-0.82474 1.1339-2.0634 0.9278-3.7129zm-768.71 0.61914c1.0309 0.20618 1.4444 0.61972 1.2383 1.2383-0.20618 0.41237-0.51536 0.61719-0.92773 0.61719 0.20618 0.82474 0.51536 1.3407 0.92773 1.5469 0.61856 0.20619 1.2369 0.51537 1.8555 0.92774 0.61864 0.20618 1.0302 0.61777 1.2363 1.2363 0.41222 0.41237 0.51666 1.3418 0.31055 2.7852-1.6495-0.20618-2.6814-0.20618-3.0938 0-0.41238 0.20619-0.61914 0.61778-0.61914 1.2363 0.20618 0.41237 0.51536 1.1331 0.92773 2.1641 0.41222 0.82475 0.51666 1.8566 0.31055 3.0938-2.0619-0.41237-3.0938 0.20599-3.0938 1.8555 0 1.4433-0.30918 2.5776-0.92774 3.4024-0.82475-0.82475-1.9591-1.2363-3.4023-1.2363-1.2371-0.20619-1.6487-1.4448-1.2363-3.7129 1.8557 1.4433 3.0924 1.6501 3.7109 0.61914 0.61863-1.0309 1.0302-2.5768 1.2363-4.6387 0.20611-2.0619 0.31054-4.1237 0.31054-6.1856 0.20619-2.268 0.61777-3.9183 1.2363-4.9492zm753.87 0c1.0309 0.20618 1.4425 0.61972 1.2364 1.2383-0.2062 0.41237-0.5154 0.61719-0.9278 0.61719 0.2062 0.82474 0.5154 1.3407 0.9278 1.5469 0.6185 0.20619 1.2369 0.51537 1.8554 0.92774 0.6186 0.20618 1.0322 0.61777 1.2383 1.2363 0.4122 0.41237 0.5147 1.3418 0.3086 2.7852-1.6495-0.20618-2.6814-0.20618-3.0937 0-0.4124 0.20619-0.6172 0.61778-0.6172 1.2363 0.2061 0.41237 0.5153 1.1331 0.9277 2.1641 0.4122 0.82475 0.5147 1.8566 0.3086 3.0938-2.0619-0.41237-3.0918 0.20599-3.0918 1.8555 0 1.4433-0.3092 2.5776-0.9277 3.4024-0.8248-0.82475-1.9591-1.2363-3.4024-1.2363-1.2371-0.20619-1.6506-1.4448-1.2383-3.7129 1.8557 1.4433 3.0924 1.6501 3.711 0.61914s1.0321-2.5768 1.2383-4.6387c0.2061-2.0619 0.3085-4.1237 0.3085-6.1856 0.2062-2.268 0.6198-3.9183 1.2383-4.9492zm-718.63 1.4883c0.5799 0.03866 1.1025 0.36777 1.5664 0.98633 0.82467 0.82474 1.1338 1.959 0.92773 3.4023-1.0309 0.20619-1.9584 0.3086-2.7832 0.3086h-2.7832c-0.41245-1.4433-0.30997-2.5776 0.30859-3.4024 0.61854-0.82474 1.3393-1.2363 2.1641-1.2363 0.20619-0.05154 0.40631-0.07148 0.59961-0.05859zm753.87 0c0.5799 0.03866 1.1005 0.36777 1.5645 0.98633 0.8246 0.82474 1.1338 1.959 0.9277 3.4023-1.0309 0.20619-1.9585 0.3086-2.7832 0.3086h-2.7832c-0.4125-1.4433-0.31-2.5776 0.3086-3.4024 0.6185-0.82474 1.3413-1.2363 2.166-1.2363 0.2062-0.05154 0.4063-0.07148 0.5996-0.05859zm-1038.6 3.1504c0.82475 0.41237 1.2363 0.82591 1.2363 1.2383 0 0.20619-0.10241 0.51537-0.30859 0.92774-0.20619 0.41237-0.31055 0.82395-0.31055 1.2363 0 0.41237 0.30918 0.92832 0.92773 1.5469h3.0938c1.0309-0.20618 1.4425-0.61777 1.2363-1.2363v-1.8555c2.0619 0 3.1962 0.20482 3.4024 0.61719 0.41237 0.41237 0.41237 1.0307 0 1.8555-0.41237 0.61856-1.0307 1.3413-1.8555 2.166-0.61856 0.82474-0.92774 1.5455-0.92774 2.1641-1.0309-0.82474-2.1652-1.1339-3.4023-0.92774-1.2371 0-2.4738 0.20677-3.7109 0.61914l-3.7109 1.2363c-1.2371 0.41238-2.4738 0.51674-3.7109 0.31055-1.0309-0.20618-1.7536-0.51536-2.166-0.92774-0.20618-0.61855-0.41295-1.1345-0.61914-1.5469 0-0.61856-0.10241-1.2369-0.30859-1.8555-0.20619-0.82474-0.72214-1.5475-1.5469-2.166 1.2371 0.61855 2.0622 0.92773 2.4746 0.92773h1.5469c0.61855-0.20618 1.2369-0.411 1.8555-0.61719 0.82474-0.41237 2.1639-0.61914 4.0195-0.61914 0-0.41237-0.41159-0.61914-1.2363-0.61914-0.61856-0.20619-1.2369-0.30859-1.8555-0.30859 0-1.0309 0.20677-1.5469 0.61914-1.5469 0.61856-0.20618 1.2369-0.20618 1.8555 0 0.61855 0.20619 1.2369 0.3086 1.8555 0.3086 0.61855 0 1.1345-0.30918 1.5469-0.92774zm25.516 0.52344c0.56701 0.01289 1.1322 0.04416 1.6992 0.0957 2.268 0 4.641 0.10241 7.1152 0.3086h9.2773c-0.41237 0.20618-1.1331 0.51731-2.1641 0.92968-1.0309 0.20619-2.1652 0.411-3.4023 0.61719-1.0309 0.20619-2.0628 0.31055-3.0938 0.31055s-1.6493-0.20677-1.8555-0.61914c-1.6495 0.61855-2.4746 1.9577-2.4746 4.0195-1.2371-1.0309-2.4738-1.3401-3.7109-0.92774-1.2371 0.41238-2.5762 0.92832-4.0195 1.5469-1.2371 0.61856-2.785 1.1345-4.6406 1.5469-1.6495 0.41238-3.7113 0.20561-6.1856-0.61914 1.4433-1.4433 1.8568-3.0916 1.2383-4.9473 2.6804-1.0309 5.0514-1.6512 7.1133-1.8574 1.701-0.30928 3.4025-0.44296 5.1035-0.4043zm201.37 0.4043c0.61853 0.61855 0.61853 1.4437 0 2.4746-0.41237 0.82474-1.1351 1.7523-2.166 2.7832-1.0309 0.82474-2.1652 1.7542-3.4023 2.7852-1.0309 0.82475-1.8541 1.5455-2.4727 2.1641-0.20626-1.8557-0.10378-3.2992 0.3086-4.3301 0.61856-1.0309 1.3393-1.856 2.1641-2.4746 0.82475-0.82474 1.7523-1.4431 2.7832-1.8555 1.0309-0.41237 1.9604-0.92832 2.7852-1.5469zm753.87 0c0.6186 0.61855 0.6186 1.4437 0 2.4746-0.4124 0.82474-1.1331 1.7523-2.1641 2.7832-1.0309 0.82474-2.1652 1.7542-3.4023 2.7852-1.0309 0.82475-1.8561 1.5455-2.4746 2.1641-0.2063-1.8557-0.1038-3.2992 0.3086-4.3301 0.6185-1.0309 1.3412-1.856 2.166-2.4746 0.8247-0.82474 1.7523-1.4431 2.7832-1.8555s1.9585-0.92832 2.7832-1.5469zm-679.02 1.5469c1.6496 2.268 1.5471 4.0207-0.3086 5.2578-1.8556 1.2371-4.0199 1.2371-6.4941 0v-2.4746c0-0.82474-0.10443-1.6479-0.31054-2.4726 0.82472 0 1.2383 0.41158 1.2383 1.2363 0 0.61855 0.10248 1.2369 0.30859 1.8555 3.0928-0.41238 4.9479-1.5467 5.5664-3.4024zm753.87 0c1.6496 2.268 1.5451 4.0207-0.3105 5.2578-1.8557 1.2371-4.02 1.2371-6.4942 0v-2.4746c0-0.82474-0.1025-1.6479-0.3086-2.4726 0.8248 0 1.2364 0.41158 1.2364 1.2363 0 0.61855 0.1044 1.2369 0.3105 1.8555 3.0928-0.41238 4.9478-1.5467 5.5664-3.4024zm-675.67 1.5469c1.0309 1.6495 2.6792 2.6794 4.9473 3.0918 2.268 0.20619 4.8458 0.10378 7.7324-0.30859-0.82475 1.6495-1.2363 3.2997-1.2363 4.9492-2.0618-1.6495-3.8145-2.4746-5.2578-2.4746-1.2371 0-3.1966 0.41158-5.877 1.2363-0.20611-1.0309-0.30859-2.0609-0.30859-3.0918v-3.4023zm23.506 0.30859c0.51547 0 1.0295 0.10436 1.5449 0.31055 1.0309 0.20618 2.1652 0.61777 3.4024 1.2363 1.2371 0.41237 2.3714 0.10319 3.4023-0.92774v2.7832c0.20611 0.61856 0.30859 1.3413 0.30859 2.166-0.82474-0.20619-1.959-0.20619-3.4023 0l-3.7109 0.61719h-3.4023c-1.031-0.20619-1.6494-0.82454-1.8555-1.8555 0.61856-2.4742 1.3413-3.8134 2.166-4.0195 0.51546-0.20619 1.0314-0.31055 1.5469-0.31055zm21.029 0.31055c0.41245 1.6495 0.30996 2.8862-0.3086 3.7109-0.61856 0.61856-1.4437 1.0302-2.4746 1.2363-0.82474 0.20619-1.8547 0.20619-3.0918 0-1.0309-0.41237-1.856-0.92636-2.4746-1.5449 0-2.0619 0.92752-3.0938 2.7832-3.0938 1.8557-0.20619 3.7107-0.30859 5.5664-0.30859zm-307.99 0.30859c2.4742 0 4.7428 0.10241 6.8047 0.30859 2.268 0 3.4024 1.4435 3.4024 4.3301-1.6495-0.61856-2.7838-0.82337-3.4024-0.61719-0.41237 1e-5 -0.61914 0.30918-0.61914 0.92774 0.20619 0.61856 0.51732 1.5461 0.92969 2.7832 0.41237 1.0309 0.61719 2.2676 0.61719 3.7109-1.6495-0.41237-2.7838-1.9583-3.4024-4.6387-0.61855-2.8866-2.062-5.1552-4.3301-6.8047zm753.87 0c2.4742 0 4.7428 0.10241 6.8047 0.30859 2.268 0 3.4004 1.4435 3.4004 4.3301-1.6495-0.61856-2.7819-0.82337-3.4004-0.61719-0.4124 1e-5 -0.6192 0.30918-0.6192 0.92774 0.2062 0.61856 0.5154 1.5461 0.9278 2.7832 0.4123 1.0309 0.6191 2.2676 0.6191 3.7109-1.6495-0.41237-2.7838-1.9583-3.4023-4.6387-0.6186-2.8866-2.0621-5.1552-4.3301-6.8047zm-763.45 7.1133c0.41237 1.6495 1.0307 2.4746 1.8555 2.4746 1.0309 0 2.0609-0.20677 3.0918-0.61914 1.2371-0.61855 2.3714-1.0301 3.4024-1.2363 1.2371-0.41237 2.269-0.20755 3.0938 0.61719-0.61856 1.4433-1.7529 2.3728-3.4024 2.7852-1.6495 0.41237-3.4021 0.72154-5.2578 0.92773-1.6495 0.20618-3.1973 0.61777-4.6406 1.2363-1.2371 0.61855-1.9579 1.9596-2.1641 4.0215-1.0309-0.61855-1.4425-1.3413-1.2363-2.166 0.20618-0.82474 0.61777-1.7523 1.2363-2.7832 0.82475-1.0309 1.5455-1.9585 2.1641-2.7832 0.82474-1.0309 1.445-1.856 1.8574-2.4746zm753.87 0c0.4124 1.6495 1.0307 2.4746 1.8555 2.4746 1.0309 0 2.0628-0.20677 3.0937-0.61914 1.2371-0.61855 2.3695-1.0301 3.4004-1.2363 1.2371-0.41237 2.269-0.20755 3.0938 0.61719-0.6186 1.4433-1.7529 2.3728-3.4024 2.7852s-3.4021 0.72154-5.2578 0.92773c-1.6495 0.20618-3.1954 0.61777-4.6387 1.2363-1.2371 0.61855-1.9599 1.9596-2.166 4.0215-1.0308-0.61855-1.4424-1.3413-1.2363-2.166 0.2062-0.82474 0.6178-1.7523 1.2363-2.7832 0.8248-1.0309 1.5475-1.9585 2.166-2.7832 0.8248-1.0309 1.4431-1.856 1.8555-2.4746zm-546.96 1.5469c0.82467 0.61855 1.1338 1.4437 0.92773 2.4746 0 1.0309-0.4116 1.9585-1.2363 2.7832-0.61856 0.82474-1.5461 1.5455-2.7832 2.1641-1.2371 0.41237-2.4758 0.41237-3.7129 0 0-1.2371 0.3092-2.1646 0.92774-2.7832 0.61856-0.61856 1.3413-1.0301 2.166-1.2363 0.82475-0.41237 1.5455-0.82591 2.1641-1.2383 0.8248-0.41237 1.3408-1.1331 1.5469-2.1641zm753.87 0c0.8247 0.61855 1.1339 1.4437 0.9277 2.4746 0 1.0309-0.4135 1.9585-1.2382 2.7832-0.6186 0.82474-1.5461 1.5455-2.7832 2.1641-1.2372 0.41237-2.4739 0.41237-3.711 0 0-1.2371 0.3092-2.1646 0.9278-2.7832 0.6185-0.61856 1.3393-1.0301 2.164-1.2363 0.8248-0.41237 1.5475-0.82591 2.166-1.2383 0.8249-0.41237 1.3408-1.1331 1.5469-2.1641zm-277.34 0.25976c1.3531-0.0451 2.3916 0.38505 3.1133 1.2871 1.0309 0.82474 2.6792 0.82474 4.9473 0-2.6804 3.299-4.4331 5.154-5.2579 5.5664-0.61852 0.41237-1.7528-1.8562-3.4023-6.8047 0.20618-0.02577 0.40631-0.04238 0.59961-0.04883zm-495.08 2.2148c1.8557 1.4433 4.2267 1.8549 7.1133 1.2363-0.41237 1.2371-0.82398 2.0622-1.2363 2.4746-0.41237 0.41237-0.92831 0.61914-1.5469 0.61914h-2.4746c-0.82475 0-1.8547 0.30918-3.0918 0.92774v-3.7129c0.82472 0.20618 1.2363-0.30781 1.2363-1.5449zm753.87 0c1.8557 1.4433 4.2287 1.8549 7.1152 1.2363-0.4123 1.2371-0.8259 2.0622-1.2382 2.4746-0.4124 0.41237-0.9283 0.61914-1.5469 0.61914h-2.4727c-0.8247 0-1.8566 0.30918-3.0937 0.92774v-3.7129c0.8247 0.20618 1.2363-0.30781 1.2363-1.5449zm-1044.3 0.54101c1.5121 1.3049 2.9056 2.6708 4.1738 4.0977 1.8557 1.6495 3.1948 3.8137 4.0195 6.4941-2.268 0-4.1231 0.30918-5.5664 0.92773-1.2371 0.61856-3.299 0.72292-6.1856 0.31055 0.61856-1.0309 1.6504-1.6493 3.0938-1.8555 1.6495-0.41237 2.577-1.1351 2.7832-2.166l-1.2383-1.2363c-0.41237-0.41237-1.0307-0.61914-1.8555-0.61914-1.0309-1e-5 -1.5469 0.20677-1.5469 0.61914 0.20619 0.41237 0.20619 0.82395 0 1.2363-1.6495-0.20619-2.2678-0.51537-1.8555-0.92774 0.61856-0.61855 1.4437-1.2369 2.4746-1.8555 1.0309-0.82474 1.7536-1.7523 2.166-2.7832 0.41945-0.6991 0.25543-1.4483-0.4629-2.2422zm-14.383 1.0039c-0.41237 1.6495-0.20755 2.6814 0.61719 3.0938 1.0309 0.20618 1.4445 0.92695 1.2383 2.1641-1.2371 0.20619-2.3714 0.00137-3.4023-0.61719-1.0309-0.61855-1.7517-1.2369-2.1641-1.8555-0.41238-0.82474-0.41238-1.445 0-1.8574 0.61855-0.61855 1.8553-0.92773 3.7109-0.92773zm26.289 2.4746c2.6804 1.2371 4.9471 1.7531 6.8027 1.5469 1.8557-0.41237 4.845-0.61914 8.9688-0.61914 0.41237 2.0619-0.92675 2.9894-4.0195 2.7832-0.1284 0.3852 0.05694 0.63788 0.48828 0.7832-1.8955-0.17737-4.2186 0.07271-6.9824 0.76367-3.0928 0.61856-5.6706 0.92773-7.7324 0.92773 0.20618-1.2371 0.51536-2.267 0.92773-3.0918 0.61856-1.0309 1.1345-2.0628 1.5469-3.0938zm92.039 2.166c1.0309 0.20619 1.4425 1.0294 1.2363 2.4727 0 1.4433 0.1024 2.7844 0.30859 4.0215-1.6495 0.41237-2.7818 0.41237-3.4004 0-0.61856-0.61855-1.4437-1.1345-2.4746-1.5469 0-0.82474 0.20482-1.3387 0.61719-1.5449 0.61855-0.20619 1.1345-0.41296 1.5469-0.61914 0.61856-0.20619 1.1345-0.41296 1.5469-0.61914 0.41237-0.41238 0.61914-1.1331 0.61914-2.1641zm753.87 0c1.0308 0.20619 1.4444 1.0294 1.2383 2.4727 0 1.4433 0.1024 2.7844 0.3085 4.0215-1.6494 0.41237-2.7837 0.41237-3.4023 0-0.6186-0.61855-1.4437-1.1345-2.4746-1.5469 0-0.82474 0.2068-1.3387 0.6191-1.5449 0.6186-0.20619 1.1345-0.41296 1.5469-0.61914 0.6186-0.20619 1.1326-0.41296 1.5449-0.61914 0.4124-0.41238 0.6192-1.1331 0.6192-2.1641zm-461.03 0.3086c1.0309 0.82474 1.9604 1.8566 2.7852 3.0938 1.0309 1.2371 1.5449 2.9878 1.5449 5.2559-1.6495 0.82474-2.9886 1.7542-4.0195 2.7852-1.0309 1.0309-2.372 0.72175-4.0215-0.92773-0.20619-1.4433 5.8e-4 -2.3728 0.61914-2.7852 0.61856-0.61856 1.2369-1.1326 1.8555-1.5449s1.1345-1.0307 1.5469-1.8555c0.41242-0.82474 0.30798-2.1658-0.31055-4.0215zm382.66 1.8555c0.25773 0 0.54033 0.1024 0.84961 0.30859 0.82475 0.41237 1.7523 1.0327 2.7832 1.8574 1.0309 0.61856 2.1652 0.72097 3.4024 0.30859 0 1.6495-1.1343 2.2678-3.4024 1.8555-2.268-0.41237-4.0207-0.41237-5.2578 0 0.20619-2.268 0.51536-3.6091 0.92773-4.0215 0.20618-0.20619 0.43954-0.30859 0.69727-0.30859zm-465.8 0.92773c2.268 1.4433 3.7115 3.8143 4.3301 7.1133 0.82475 3.299 0.61993 6.4951-0.61719 9.5879-1.0309-0.41237-1.856-1.0307-2.4746-1.8555-0.41235-0.82474-1.1351-1.3407-2.166-1.5469 1.4433-1.4433 2.166-2.68 2.166-3.7109 0-1.2371-0.20679-2.267-0.61914-3.0918l-1.2363-3.0938c-0.20618-1.0309-0.00137-2.1652 0.61719-3.4023zm753.87 0c2.268 1.4433 3.7115 3.8143 4.3301 7.1133 0.8247 3.299 0.6179 6.4951-0.6192 9.5879-1.0309-0.41237-1.856-1.0307-2.4746-1.8555-0.4124-0.82474-1.1331-1.3407-2.1641-1.5469 1.4434-1.4433 2.1641-2.68 2.1641-3.7109 0-1.2371-0.2068-2.267-0.6191-3.0918l-1.2364-3.0938c-0.2061-1.0309 6e-4 -2.1652 0.6192-3.4023zm-786.96 1.2383c0.61856 1.6495 1.6485 2.6794 3.0918 3.0918 1.4433 0.20618 2.8868 0.51536 4.3301 0.92773 1.6495 0.20619 3.093 0.72214 4.3301 1.5469 1.2371 0.61856 1.8555 1.9577 1.8555 4.0195-1.4433-1.8557-3.5052-2.8856-6.1856-3.0918-2.6804-0.20618-5.5674-0.10378-8.6602 0.3086 0.82475-1.4433 1.2383-3.71 1.2383-6.8027zm753.87 0c0.6186 1.6495 1.6505 2.6794 3.0938 3.0918 1.4433 0.20618 2.8867 0.51536 4.3301 0.92773 1.6495 0.20619 3.0929 0.72214 4.33 1.5469 1.2372 0.61856 1.8555 1.9577 1.8555 4.0195-1.4433-1.8557-3.5051-2.8856-6.1855-3.0918-2.6804-0.20618-5.5674-0.10378-8.6602 0.3086 0.8247-1.4433 1.2363-3.71 1.2363-6.8027zm-1019.1 8.9688c0.61855 1.0309 0.72291 1.7517 0.31054 2.1641-0.20618 0.41237-0.51536 0.82591-0.92773 1.2383-0.41237 0.20619-0.82591 0.51537-1.2383 0.92774s-0.61719 0.92637-0.61719 1.5449c-1.0309-0.61856-2.2696-0.82337-3.7129-0.61719-1.2371 0-1.8555 0.514-1.8555 1.5449-1.0309-0.20619-1.2358-0.51537-0.61719-0.92774s0.72097-1.0307 0.3086-1.8555c-2.0619-0.41237-3.0938-0.10319-3.0938 0.92774 0 1.0309-0.30918 1.7536-0.92774 2.166-0.82474-0.20618-1.3387-0.61972-1.5449-1.2383 0-0.61856-0.51595-0.82337-1.5469-0.61719 0.20618 0.61856-0.61895 1.1326-2.4746 1.5449-1.6495 0.20618-3.6089 0.31054-5.877 0.31054-2.0618 0-4.0193-0.10436-5.875-0.31054-1.6495-0.41238-2.2678-1.1331-1.8555-2.1641-1.6495-0.20618-2.7838-0.10377-3.4023 0.3086l-1.8555 1.2383c-0.61855 0.41237-1.3413 0.82396-2.166 1.2363-0.82475 0.41237-2.0615 0.51478-3.7109 0.30859 0.20618-0.82474 0.61777-1.3387 1.2363-1.5449 0.61855-0.41237 1.1345-0.72155 1.5469-0.92774 0.41237-0.20618 0.61914-0.51536 0.61914-0.92773s-0.30918-1.2375-0.92773-2.4746c3.9175-0.41237 7.0093-0.2056 9.2773 0.61914 2.4742 0.82474 5.1544 1.4431 8.041 1.8555 1.6495 0 1.8562-0.41354 0.61914-1.2383-1.2371-0.82474-2.4738-1.0296-3.7109-0.61719 0-0.41237 0.41159-0.7235 1.2363-0.92969 1.0309-0.20618 2.0628-0.30859 3.0938-0.30859 1.0309 0 1.856 0.20677 2.4746 0.61914 0.82474 0.20618 0.92715 0.72213 0.30859 1.5469 0.82474-1.2371 1.8566-1.9598 3.0938-2.166 1.4433-0.41237 2.9892-0.61914 4.6387-0.61914 1.6495 0 3.4022 0.10436 5.2578 0.31055 2.0618 0 4.0193-0.30918 5.875-0.92774zm-49.484 0.3086c0.61856 0 1.4437 0.20676 2.4746 0.61914 1.0309 0.20618 2.0628 0.51536 3.0938 0.92773s1.7517 0.72155 2.1641 0.92773c0 0.82475-0.30918 1.2363-0.92773 1.2363-0.41237 0-0.92832-0.1024-1.5469-0.30859-0.41237-0.41237-0.82395-0.61914-1.2363-0.61914-0.41238-0.20619-0.51479 0.10299-0.3086 0.92773-1.2371-0.20618-1.8574-0.72018-1.8574-1.5449 0.20618-1.0309-0.30781-1.4445-1.5449-1.2383-0.82475-0.61856-0.92911-0.92773-0.31055-0.92773zm-22.988 0.9082c0.29961 0.03866 0.6427 0.25207 1.0293 0.63867 1.0309 0.82474 2.2696 1.0315 3.7129 0.61914v1.8555c-1.0309 0.61855-2.372 0.92773-4.0215 0.92773 1e-5 -0.61855-0.1024-1.1345-0.30859-1.5469 0-0.61856-0.51595-1.0301-1.5469-1.2363 0.25774-0.90206 0.63541-1.3222 1.1348-1.2578zm13.787 1.4121c0.6701 0 1.4706 0.15361 2.3984 0.46289-1.8557 1.4433-2.5784 2.7844-2.166 4.0215 0.61856 1.0309 0.51615 2.2676-0.30859 3.7109 1.4433 1.2371 3.9167 1.8555 7.4219 1.8555-2.4742 1.4433-5.566 1.6501-9.2773 0.61914-3.5052-1.0309-7.1148-1.7536-10.826-2.166 1.0309-1.4433 1.342-3.0916 0.92968-4.9473 2.268 1.0309 3.9163 1.3401 4.9473 0.92773 1.2371-0.61855 2.1646-1.3413 2.7832-2.166 0.82474-0.82475 1.6499-1.4431 2.4746-1.8555 0.41237-0.30928 0.95295-0.46289 1.623-0.46289zm-100.28 0.46289c1.4433 1.6495 3.196 2.577 5.2578 2.7832 2.0619 0 4.1237-0.10241 6.1855-0.30859 2.0619-0.41237 4.0213-0.61914 5.877-0.61914 1.8557 0 3.4016 0.82512 4.6387 2.4746-3.9175 1.0309-7.732 1.9585-11.443 2.7832-3.7113 0.82474-7.6282 0.10398-11.752-2.1641 1.0309-1.4433 1.4425-3.0936 1.2363-4.9492zm642.58 0.21289c1.8557 0.11598 2.5518 1.7975 2.0879 5.0449 1.0309-2.0619 2.2676-3.2986 3.7109-3.7109 1.4433-0.61855 2.8868-0.82532 4.3301-0.61914 1.6495 0.20619 3.1954 0.61973 4.6387 1.2383 1.6495 0.41237 3.093 0.72155 4.3301 0.92774-1.8557 0.82474-3.6083 1.4431-5.2578 1.8555l-4.3301 1.2363c-1.2371 0.20619-2.6806 0.51537-4.3301 0.92774-1.6495 0.41237-3.6089 0.92832-5.877 1.5469-0.41238-1.6495-1.1331-2.9906-2.1641-4.0215-1.0309-1.0309-0.82415-2.37 0.61914-4.0195 0.87628-0.30928 1.6236-0.44491 2.2422-0.40625zm-649.69 0.09765c-0.20618 2.0619-0.72213 3.401-1.5469 4.0195-0.61856 0.61855-1.5461 0.92773-2.7832 0.92773-1.0309 0-2.37-0.20677-4.0195-0.61914-1.4433-0.41237-2.9911-0.61719-4.6406-0.61719 0.61856-0.82474 1.4437-1.3407 2.4746-1.5469 1.2371-0.20619 2.4738-0.3086 3.7109-0.3086 1.4433-0.20618 2.7844-0.41295 4.0215-0.61914 1.2371-0.20618 2.1646-0.61777 2.7832-1.2363zm-43.299 1.5449c0.20619 0.41237 0.61972 0.72154 1.2383 0.92773 0.61856 0.20619 1.1326 0.41296 1.5449 0.61914 0.61856 0.20619 1.0321 0.51537 1.2383 0.92774 0.41237 0.41237 0.51478 1.2375 0.30859 2.4746-2.268-0.20619-3.9183 0.20539-4.9492 1.2363s-2.2676 0.72175-3.7109-0.92773c-0.20618-1.0309 5.84e-4 -1.5449 0.61914-1.5449 0.61856-0.20619 1.2369-0.31055 1.8555-0.31055 0.82474 0 1.4431-0.20677 1.8555-0.61914 0.61856-0.41237 0.61856-1.3399 0-2.7832zm669.18 0.31054c0.56701 0 1.1588 0.10241 1.7773 0.3086 1.2371 0.20618 2.6806 0.51536 4.3301 0.92773 1.6495 0.41237 3.5045 0.10319 5.5664-0.92773-0.20619 1.4433-0.82454 2.3708-1.8555 2.7832-0.82475 0.41237-1.7523 0.82591-2.7832 1.2383-0.82475 0.41237-1.5455 1.0307-2.1641 1.8555s-0.61856 2.2682 0 4.3301c-1.0309-0.82474-1.7536-1.7542-2.166-2.7852-0.41237-1.2371-0.82398-2.267-1.2363-3.0918-0.20619-0.82475-0.72213-1.3407-1.5469-1.5469-0.61856-0.20618-1.8553 0.20736-3.7109 1.2383 0.61856-2.4742 1.3393-3.8153 2.1641-4.0215 0.51547-0.20619 1.058-0.3086 1.625-0.3086zm226 1.5449c2.0619 1.6495 3.5054 2.3722 4.3301 2.166 1.0309-0.41237 3.402-0.72155 7.1133-0.92773-0.41238 2.0618-1.4423 3.5053-3.0918 4.3301-1.4433 0.82473-3.3003 1.3407-5.5684 1.5469-2.0619 0.20619-4.2261 0.20619-6.4941 0-2.2681-0.20619-4.1231-0.31055-5.5664-0.31055 0.20619-1.4433 0.72216-2.2684 1.5469-2.4746 1.0309-0.20618 2.0609-0.30859 3.0918-0.30859 1.0309 0 1.9585-0.10241 2.7832-0.30859 1.031-0.41237 1.6494-1.651 1.8555-3.7129zm-253.5 1.9824c2.2713-0.03222 4.5026 0.33813 6.6934 1.1113-1.2371 1.4433-2.7849 2.5776-4.6406 3.4023s-3.8132 1.3407-5.875 1.5469c-2.0619 0-3.9189-0.30917-5.5684-0.92773-1.6495-0.61856-2.8862-1.7529-3.7109-3.4023 2.2681-0.20619 5.2574-0.61973 8.9688-1.2383 1.3918-0.30927 2.7701-0.47285 4.1328-0.49218zm-137.38 1.1113c0.82474 0 1.2383 0.30917 1.2383 0.92773s-0.20677 1.3393-0.61914 2.1641c-0.41238 0.61856-0.82396 1.3413-1.2363 2.166-0.41237 0.61856-0.61914 1.2369-0.61914 1.8555-0.61854-0.20619-1.1345-0.51537-1.5469-0.92774-0.20618-0.41237-0.72017-0.61914-1.5449-0.61914-1.6495 0.82474-2.4746 1.959-2.4746 3.4024-1.0309-0.82475-1.3401-1.6499-0.92773-2.4746 0.41235-0.82475 1.0307-1.6479 1.8555-2.4727 1.0309-0.82474 2.0609-1.5475 3.0918-2.166 1.2371-0.61855 2.1646-1.2369 2.7832-1.8555zm753.87 0c0.8248 0 1.2364 0.30917 1.2364 0.92773s-0.2049 1.3393-0.6172 2.1641c-0.4124 0.61856-0.826 1.3413-1.2383 2.166-0.4124 0.61856-0.6172 1.2369-0.6172 1.8555-0.6186-0.20619-1.1345-0.51537-1.5469-0.92774-0.2062-0.41237-0.7221-0.61914-1.5468-0.61914-1.6495 0.82474-2.4747 1.959-2.4747 3.4024-1.0309-0.82475-1.3401-1.6499-0.9277-2.4746 0.4124-0.82475 1.0308-1.6479 1.8555-2.4727 1.0309-0.82474 2.0628-1.5475 3.0937-2.166 1.2372-0.61855 2.1647-1.2369 2.7832-1.8555zm-496.29 1.2363c0.82475 1.6495 2.0615 2.7838 3.7109 3.4024 1.6494 0.41237 2.3721 1.9583 2.166 4.6387-1.4433-0.20619-2.3708 5.8e-4 -2.7832 0.61914s-0.82591 1.3413-1.2383 2.166c-0.20616 0.82474-0.61777 1.5455-1.2363 2.1641-0.41237 0.61856-1.4443 0.72096-3.0938 0.30859 0.20619-1.0309 0.72213-1.5449 1.5469-1.5449 0.82475-0.20618 1.2383-0.82454 1.2383-1.8555-0.61856-0.82474-1.3413-1.6499-2.166-2.4746-0.61856-0.82474-1.3393-1.6499-2.1641-2.4746-0.20626-0.82474-0.10378-1.4431 0.30859-1.8555s0.82396-0.72154 1.2363-0.92773c0.61856-0.20618 1.1345-0.41295 1.5469-0.61914 0.61856-0.20619 0.92774-0.72213 0.92774-1.5469zm89.227 3.3457c0.25773-0.01289 0.51571 0.00509 0.77344 0.05664v4.9492c-2.268-0.61856-3.6072-0.20697-4.0195 1.2363-0.41238 1.2371-0.92832 2.4738-1.5469 3.7109-0.82474-0.61856-1.2363-1.4417-1.2363-2.4726 0.20619-1.2371 0.61777-2.4758 1.2363-3.7129 0.61856-1.2371 1.4437-2.1646 2.4746-2.7832 0.77318-0.61856 1.5452-0.94571 2.3184-0.98437zm-51.186 0.67578c1.4433 0 3.0935 0.20677 4.9492 0.61914 1.8557 0.20619 3.5059 0.20619 4.9492 0 0.61856 0.41237 0.20503 0.82396-1.2383 1.2363-1.2371 0.41237-2.783 0.82395-4.6387 1.2363-1.8557 0.41237-3.6083 0.82591-5.2578 1.2383-0.89084 0.12726-1.3845 0.21105-1.5684 0.25976-1.0076-2.0294-1.2088-3.2534-0.59571-3.6621 0.82475-0.61856 1.9571-0.92773 3.4004-0.92773zm135.77 0c1.6495 0.41237 3.2997 0.82396 4.9492 1.2363 1.8557 0.41237 4.0199 0.41237 6.4941 0-1.0309 0.61855-2.1652 1.3413-3.4023 2.166-1.0309 0.61856-2.1633 1.0301-3.4004 1.2363-1.0309 0-2.0628-0.30918-3.0938-0.92773-0.8248-0.61856-1.3408-1.8553-1.5469-3.7109zm-152.47 1.7012c0.82474 0 1.5475 0.36038 2.166 1.082 0 2.268-1.1343 3.4023-3.4024 3.4023-2.0619 1e-5 -4.0213 0.10241-5.877 0.3086 1.0309-1.2371 2.4744-2.4738 4.3301-3.7109 1.0309-0.72165 1.9585-1.082 2.7832-1.082zm-697.86 3.248c-1.2371 2.4742-3.4014 4.4317-6.4941 5.875-2.8866 1.2371-5.8779 2.4738-8.9707 3.7109-2.8866 1.2371-5.4624 2.6806-7.7305 4.3301-2.0619 1.6495-2.7846 4.0205-2.166 7.1133-1.4433 0.61856-2.4732 0.51615-3.0918-0.30859-0.61856-0.82474-1.1345-2.0614-1.5469-3.7109-0.20618-1.8557-0.41295-3.8151-0.61914-5.877-0.20619-2.268-0.51536-4.4323-0.92774-6.4941 2.4742-0.82474 5.2588-1.4431 8.3516-1.8555 3.0928-0.41237 6.0822-0.72155 8.9688-0.92773 2.8866-0.20619 5.5668-0.41296 8.041-0.61915 2.6804-0.20618 4.7422-0.61777 6.1855-1.2363zm617.45 2.7832c2.0619 2.268 3.0938 6.3917 3.0938 12.371-0.82474 1.0309-2.0614 1.6493-3.7109 1.8555-1.4433 0.20619-2.9911 0.3086-4.6406 0.3086-0.20626-2.0619-0.10183-3.1962 0.31055-3.4024 0.41237-0.20618 0.92636-0.10182 1.5449 0.31055 0.61856 0.20618 1.2389 0.411 1.8574 0.61719 0.82472 0.20618 1.4431-0.2054 1.8555-1.2363-2.268-1.8557-3.7115-2.99-4.3301-3.4023-0.61848-0.41237-0.82525-0.72155-0.61914-0.92774l1.5469-1.5469c1.0309-0.82475 2.0609-2.473 3.0918-4.9473zm48.75 2.6856c0.33505 0.01288 0.6841 0.04611 1.0449 0.09765 1.4433 0.20619 2.68 0.51537 3.7109 0.92774-0.61856 1.2371-1.4437 2.0622-2.4746 2.4746-0.82474 0.20618-1.7523 0.411-2.7832 0.61718-0.82475 0-1.6499 0.10436-2.4746 0.31055-0.61856 0-0.92773 0.41159-0.92773 1.2363-1.0309-1.6495-1.3401-2.8862-0.92774-3.7109 0.41238-0.82474 1.1351-1.3407 2.166-1.5469 0.7732-0.30928 1.6609-0.44491 2.666-0.40625zm127.46 0.05859c0.98261 0 2.2466 0.32247 3.793 0.9668 0.41245 1.2371 0.30997 1.9579-0.30859 2.1641-0.41237 0.20619-1.1332 0.31055-2.1641 0.31055-0.82475-0.20619-1.7542-0.31055-2.7852-0.31055s-1.8541 0.41354-2.4727 1.2383h-0.00195c0.82475-2.268 1.6499-3.6091 2.4746-4.0215 0.3866-0.23196 0.87528-0.34766 1.4648-0.34766zm-729.64 1.5859c2.4742 4.1237 5.7747 7.1131 9.8984 8.9688 4.3299 1.8557 8.8652 1.3397 13.607-1.5469-1.0309 2.268-2.886 3.7115-5.5664 4.3301-2.6804 0.41237-5.1558 1.3399-7.4238 2.7832 0-2.6804-1.0299-4.3307-3.0918-4.9492-1.4433 1.6495-3.4027 2.8881-5.877 3.7129-2.268 0.61855-4.639 1.1326-7.1133 1.5449-2.4742 0.20618-4.8452 0.20618-7.1133 0-2.268-0.20619-4.0207-0.51537-5.2578-0.92774 0.20618 1.2371-5.9e-4 2.4758-0.61915 3.7129-0.61855 1.0309-1.4417 1.8541-2.4726 2.4727-0.82474 0.41237-1.8566 0.30996-3.0938-0.30859-1.0309-0.61856-1.9585-1.9596-2.7832-4.0215-0.82475 1.6495-1.959 2.6814-3.4024 3.0938s-2.5776 1.2375-3.4023 2.4746c-0.61856-0.20618-1.1345-0.51536-1.5469-0.92773-0.20618-0.61856-0.51536-1.1345-0.92773-1.5469-0.20619-0.61855-0.61777-1.0301-1.2363-1.2363-0.41237-0.20618-1.1331-0.00137-2.1641 0.61719v-3.4023c0-1.2371-0.10436-2.2671-0.31055-3.0918-0.20619-1.0309-0.61777-1.7536-1.2363-2.166-0.61855-0.41237-1.6504-0.30801-3.0938 0.31054 0-0.61855 0.20677-1.2369 0.61914-1.8555 0.61856-0.61855 1.0302-1.1345 1.2363-1.5469 0.41238-0.61856 0.51674-1.0301 0.31055-1.2363-0.20619-0.41237-1.0313-0.51673-2.4746-0.31055 1.6495-1.6495 3.2997-2.4746 4.9492-2.4746 1.6495-0.20618 3.2978-0.10182 4.9473 0.31055 0 1.0309-0.51594 1.5449-1.5469 1.5449-0.82474 0-1.6479 0.10436-2.4727 0.31055 1.4433 3.0928 3.0916 4.8454 4.9473 5.2578s3.9175 0.2056 6.1856-0.61914c2.268-0.82474 4.639-1.959 7.1133-3.4023 2.6804-1.6495 5.2582-2.8862 7.7324-3.7109 0.41237 2.268-0.10358 3.4023-1.5469 3.4023-1.2371 0-2.1646 0.51595-2.7832 1.5469 0.61856 0.61855 1.6504 1.0301 3.0938 1.2363 1.4433 0.20618 2.7824 0.10377 4.0195-0.3086 1.4433-0.41237 2.5776-1.1351 3.4023-2.166 1.0309-1.0309 1.3401-2.37 0.92774-4.0195 1.6495 0 2.8862 0.30917 3.7109 0.92773 0.82474 0.61856 1.4431-0.30897 1.8555-2.7832zm716.81 0.92773c2.4227 0 4.8715 0.10241 7.3457 0.3086-2.2681 1.4433-4.6391 2.3708-7.1133 2.7832-2.4742 0.41237-5.052 0.61914-7.7324 0.61914-2.4742 0-5.052-0.10436-7.7324-0.31055-2.4742-0.41237-4.8452-0.51478-7.1133-0.30859 5.567-1.6495 10.618-2.577 15.154-2.7832 2.3711-0.20619 4.7687-0.3086 7.1914-0.3086zm-375.92 0.80664c1.1115-0.04832 2.182 0.50622 3.2129 1.666-0.41238 1.6495-0.92832 2.579-1.5469 2.7852-0.41237 0.20619-1.0307 0.3086-1.8555 0.3086-0.61856-0.20619-1.4417-0.3086-2.4726-0.3086-0.82475-0.20618-1.6499 0.103-2.4746 0.92774v4.9473c-1.0309-0.41237-1.5469-1.2375-1.5469-2.4746 0.20611-1.4433 0.20611-2.7824 0-4.0195 1.4433-1.0309 2.9892-2.0628 4.6387-3.0938 0.69587-0.46391 1.378-0.70928 2.0449-0.73828zm753.87 0c1.1114-0.04832 2.1839 0.50622 3.2148 1.666-0.4124 1.6495-0.9283 2.579-1.5469 2.7852-0.4123 0.20619-1.0307 0.3086-1.8554 0.3086-0.6186-0.20619-1.4437-0.3086-2.4746-0.3086-0.8248-0.20618-1.6499 0.103-2.4746 0.92774v4.9473c-1.031-0.41237-1.5469-1.2375-1.5469-2.4746 0.2061-1.4433 0.2061-2.7824 0-4.0195 1.4433-1.0309 2.9911-2.0628 4.6406-3.0938 0.6959-0.46391 1.3761-0.70928 2.043-0.73828zm-468.8 0.66211c0.6701 0 1.3397 0.02463 2.0098 0.07617 2.8866 0.20619 6.1852 1.3405 9.8965 3.4024 0 0.61855-0.41158 1.3413-1.2363 2.166-0.82475 0.61856-1.6499 1.2369-2.4746 1.8555-0.8248 0.61856-1.3408 1.3393-1.5469 2.1641 0 0.61856 0.82514 1.3413 2.4746 2.166-5.9794 1.2371-11.547 2.5762-16.701 4.0195-5.1546 1.2371-10.722 1.3415-16.701 0.31055 1.4433-2.0619 2.8868-3.3005 4.3301-3.7129 1.4433-0.41237 2.8868-0.41237 4.3301 0 1.6495 0.20618 3.2978 0.41295 4.9473 0.61914 1.6495 0.20619 3.2997-0.10299 4.9492-0.92774-0.41237-2.268-1.4423-3.5048-3.0918-3.7109-1.6495-0.41237-3.7113-0.30996-6.1855 0.30859-2.4742 0.41237-5.052 0.92832-7.7324 1.5469-2.6804 0.41237-5.1558 0.30996-7.4238-0.3086 0.41235-1.0309 0.92831-1.856 1.5469-2.4746 0.61864-0.82474 1.0302-0.61992 1.2363 0.61719 0.82475-0.82474 1.0315-1.5455 0.61914-2.1641-0.20619-0.82474 0.51652-1.7523 2.166-2.7832 3.9175 0.41237 7.3185 0.30997 10.205-0.30859 3.0928-0.82474 5.8773-1.5475 8.3516-2.166 2.0103-0.46392 4.0209-0.69532 6.0312-0.69532zm19.484 0.46289c0.72165 0.05155 1.4936 0.23174 2.3184 0.54102 1.8557 0.61855 3.8151 1.3413 5.877 2.166 2.0619 0.61856 4.3305 0.41179 6.8047-0.61914 0.41245 1.4433 0.30802 2.3708-0.31055 2.7832-0.61856 0.41237-0.92773 1.1351-0.92773 2.166 1.0309-0.41237 1.7536-0.20755 2.166 0.61719 0.41237 0.61856 1.1331 0.92969 2.1641 0.92969-2.2681 1.8557-4.3299 2.6788-6.1856 2.4726-1.8557-0.20618-3.7107-0.82454-5.5664-1.8555-1.6495-1.2371-3.4021-2.3714-5.2578-3.4023-1.6495-1.0309-3.6089-1.4425-5.877-1.2363 0.61856-2.6804 1.5461-4.1239 2.7832-4.3301 0.61855-0.20619 1.2901-0.28397 2.0117-0.23243zm-142.42 0.23243c0.82473 1.6495 2.5774 2.7838 5.2578 3.4023-0.82475 1.0309-1.959 1.6493-3.4024 1.8555-1.4433 0.20618-2.7824 0.41295-4.0195 0.61914-1.2371 0.20618-2.3714 0.61777-3.4023 1.2363-0.82472 0.61855-1.2363 1.7529-1.2363 3.4023-1.0309-1.0309-1.4444-2.0628-1.2383-3.0938 0.20618-1.2371 0.72213-2.267 1.5469-3.0918 1.0309-1.0309 2.1652-1.856 3.4024-2.4746 1.2371-0.82474 2.267-1.4431 3.0918-1.8555zm215.62 3.8379c1.2564-0.03222 2.2717 0.33813 3.0449 1.1113-1.4433 1.0309-3.4027 1.9585-5.877 2.7832-2.4742 0.61855-4.3293 0.30938-5.5664-0.92774 1.4433-1.0309 3.4027-1.856 5.877-2.4746 0.92784-0.30928 1.7676-0.47285 2.5215-0.49218zm37.994 0.18359c1.4433 0 3.0916 0.20482 4.9473 0.61719 1.8557 0.20618 3.5059 0.20618 4.9492 0 0.61856 0.41237 0.20503 0.82591-1.2383 1.2383-1.2371 0.41237-2.783 0.82396-4.6387 1.2363-1.8557 0.41237-3.6083 0.82591-5.2578 1.2383-0.89045 0.1272-1.3842 0.20908-1.5684 0.25781-1.0068-2.0284-1.2087-3.2515-0.5957-3.6602 0.82474-0.61855 1.9591-0.92773 3.4023-0.92773zm73.299 1.7012c0.82474 0 1.5455 0.36038 2.1641 1.082 0 2.268-1.1343 3.4024-3.4023 3.4024-2.0619 0-4.0194 0.1024-5.875 0.30859 1.0309-1.2371 2.4744-2.4738 4.3301-3.7109 1.0309-0.72165 1.9585-1.082 2.7832-1.082zm-974.36 0.46289c2.8866 0.82474 3.505 2.475 1.8555 4.9492 2.268-1.6495 4.3299-2.7838 6.1855-3.4023 2.0619-0.61856 4.0213-0.92774 5.877-0.92774 1.8557 0 3.7107 0.30918 5.5664 0.92774 2.0619 0.41237 4.2261 0.72154 6.4941 0.92773-3.5052 1.6495-7.4221 2.8862-11.752 3.7109-4.3299 0.82474-8.9695 1.0315-13.918 0.61914-0.20619 1.8557 0.41217 2.99 1.8555 3.4023-0.41237 0.41238-1.1331 0.51478-2.1641 0.3086-1.0309-0.20619-2.1652-0.61777-3.4023-1.2363-1.2371-0.61856-2.3714-1.3413-3.4023-2.166-1.0309-1.0309-1.6493-2.1652-1.8555-3.4023 2.0619-0.20619 4.0213-0.30859 5.877-0.30859s2.7832-1.1343 2.7832-3.4024zm47.938 0c0.41237 1.8557 0.30996 3.1967-0.30859 4.0215-0.41237 0.61855-1.1351 1.1326-2.166 1.5449-1.0309 0.20618-2.1652 0.31055-3.4023 0.31055-1.0309 0-1.8541 0.30917-2.4727 0.92773-0.20618-1.4433-0.10378-2.4752 0.30859-3.0938 0.61856-0.82474 1.3393-1.4431 2.1641-1.8555 1.0309-0.41237 2.0628-0.72155 3.0938-0.92773 1.0309-0.20619 1.9585-0.51537 2.7832-0.92774zm616.83 0c1.0309 0 2.1652 0.10241 3.4023 0.3086 1.2371 0.20618 2.267 0.10377 3.0918-0.3086-1.0309 2.268-2.6792 3.4024-4.9473 3.4024-2.0618-0.20619-4.1237-0.61778-6.1856-1.2363 0.20619-1.0309 0.72018-1.6512 1.5449-1.8574 1.0309-0.20619 2.0628-0.3086 3.0938-0.3086zm109.48 0c-0.61856 0.41237-1.4437 0.61914-2.4746 0.61914-0.82472-0.20618-1.7523-0.31054-2.7832-0.31054-0.82475-0.20619-1.5475-0.10183-2.166 0.31054-0.61856 0.20619-0.92773 0.72214-0.92773 1.5469 0.20619 0.41237 0.82649 0.82395 1.8574 1.2363 1.0309 0.20618 2.0609 0.41295 3.0918 0.61914 1.2371 0 2.1646-0.20677 2.7832-0.61914 0.82475-0.61856 1.0315-1.7529 0.61914-3.4024zm-746.73 0.61914c1.4433 0.61856 2.5776 0.92774 3.4023 0.92774h2.1641c0.61856-0.20619 1.2369-0.31055 1.8555-0.31055 0.61856 0 1.5461 0.20677 2.7832 0.61914l-2.7832 1.8555c-1.2371 0.61855-2.4738 1.0321-3.7109 1.2383-1.0309 0.20619-1.9585-5.8e-4 -2.7832-0.61914s-1.1339-1.8553-0.92773-3.7109zm823.43 0c1.2371 1.2371 1.8555 3.4014 1.8555 6.4941-3.5052-0.41237-6.1854-0.51478-8.041-0.30859-1.6495 0-4.2273 0.30918-7.7324 0.92773 0.20619-2.268 0.82456-3.6091 1.8555-4.0215 1.2371-0.61856 2.4738-0.82337 3.7109-0.61719h4.3301c1.4433-0.20618 2.7844-1.0313 4.0215-2.4746zm-67.5 2.3184c0.7732 0 1.5205 0.05316 2.2422 0.15625 1.6495 0 2.9886 0.41159 4.0195 1.2363 0.20619 1.2371 0.00135 2.0622-0.61719 2.4746-0.41237 0.20618-1.0307 0.41295-1.8555 0.61914-0.61856 0.20618-1.3413 0.411-2.166 0.61719-0.61856 0.20618-0.92773 0.72213-0.92773 1.5469-1.6495-0.82474-2.6794-2.989-3.0918-6.4941 0.82473-0.10309 1.6233-0.15625 2.3965-0.15625z"
     fill="#333"
     id="path69249"
     style="fill:#e76754;fill-opacity:1" />
  <text
     fill="#000000"
     font-family="sans-serif"
     font-size="10.583px"
     style="line-height:1.25;shape-inside:url(#rect67956);white-space:pre;"
     xml:space="preserve"
     id="text69251" />
</svg>
